<svg version="1.1" id="Layer_1" xmlns="http://www.w3.org/2000/svg" xmlns:xlink="http://www.w3.org/1999/xlink" x="0px" y="0px" viewBox="0 0 290 74.91" style="enable-background:new 0 0 290 74.91;" xml:space="preserve" width="290"  height="74.91" >
<style type="text/css">
	.st0{fill:#12A3C4;}
	.st1{fill:#FFFFFF;}
	.st2{fill-rule:evenodd;clip-rule:evenodd;fill:#12A3C4;}
	.st3{fill:#E07C0E;}
</style>
<g>
	<path class="st0" d="M3.16,49.46l-2.99,8.81c0,0-1.13,4.47,2.38,5.26c0,0,3.3,1.14,5.05-3.14c0,0,1.33-3.87,4.62-2.97   c0,0,3.51-0.3,2.67,5.86c0,0-0.65,5.81,4.74,6.08c0,0,6.56,1.09,7.86-5.61c0,0,0.07-6.07,4.71-6.02c0,0,3.27-0.41,4.64,6.41   c0,0,1.36,7.48,8.83,9.74c0,0,17.19,4.8,12.82-6.19c0,0-3.03-6.45-2.6-7.32c0,0-4.05-3.36-4.26-8.26   c-0.22-4.9-14.56-11.7-17.57-7.64c-3.02,4.06-7.69,11.13-8.83,9.18c-1.14-1.94-9.62-13.11-12.85-10.02   c-3.23,3.09-5.38,3.8-6.78,4.15C4.21,48.12,3.16,49.46,3.16,49.46L3.16,49.46z"/>
	<path class="st1" d="M56.14,57.94c-0.07-0.54-0.15-1.05-0.34-1.55L42.06,6.57l-0.14-0.49c0,0,0.87-0.78,1.47-1.99   c0.01-0.02,0.02-0.03,0.02-0.05c0.07-0.13,0.12-0.27,0.18-0.42c0.02-0.05,0.04-0.11,0.06-0.16c0.33-0.94,0.13-2.09-0.59-2.92   c-1.72-1.67-4.81,1.03-5.25,1.43l-0.06,0.05C28.73-2.2,18.99,2.15,18.17,2.53L18.1,2.45c-0.49-0.45-3.2-2.85-5.08-1.44   c-2.49,1.86,0.81,6.24,0.81,6.24L3.94,45.25c-0.07,0.26-0.14,0.4-0.35,0.89c-0.92,1.38-1.1,2.82-0.58,3.27   c0.66,0.56,1.47,0.54,2.31,0.2c0.43-0.12,0.82-0.33,1.2-0.57c0.3-0.19,0.57-0.41,0.83-0.64c0.25-0.21,0.47-0.44,0.69-0.69   c0.1-0.1,0.21-0.19,0.31-0.29c0.2-0.19,0.37-0.37,0.53-0.54c0.12-0.12,0.41-0.36,0.5-0.47c0.87-0.62,1.94-0.86,3.18-0.76   c3.57,0.29,4.88,3.22,4.37,8.23c0.03,0.84,0.35,1.56,0.82,2.22c0.12,0.17,0.24,0.33,0.38,0.5c0.06,0.08,0.13,0.14,0.2,0.21   c0.72,0.74,1.68,1.03,2.69,1.25c0.71,0.16,1.42,0.27,2.14,0.27c1.22,0,2.39-0.21,3.55-0.59c1.73-0.57,2.74-1.15,3.61-2.92   c0.28-0.58,0.5-1.49,0.58-2.15c0-0.02,0.01-0.05,0.02-0.08c0.15-3.92,2.19-7.41,6.44-7.42c4.03-0.01,6.31,3.56,6.44,7.52   c0.04,0.37,0.05,0.74,0.11,1.11c0.2,1.22,0.4,2.04,0.7,3.04c0.08,0.27,0.18,0.53,0.27,0.79c0,0,1.4,4.85,7.27,4.73   C52.13,62.37,56.63,62.41,56.14,57.94L56.14,57.94z"/>
	<path class="st2" d="M20.7,7.55c0.87-0.05,1.63,0.21,2.27,0.83c0.09,0.09,0.17,0.18,0.22,0.3c0.07,0.16,0.09,0.32-0.04,0.46   c-0.13,0.14-0.3,0.19-0.48,0.12c-0.15-0.05-0.25-0.16-0.36-0.26c-0.72-0.66-1.57-0.6-2.42-0.41c-0.24,0.05-0.39,0.29-0.59,0.43   c-0.13,0.1-0.26,0.2-0.44,0.14c-0.33-0.1-0.43-0.43-0.2-0.72c0.38-0.47,0.85-0.81,1.48-0.85C20.32,7.57,20.51,7.57,20.7,7.55   L20.7,7.55z"/>
	<path class="st2" d="M34,8.63c-0.53,0.04-1.05,0.09-1.47,0.49c-0.15,0.14-0.33,0.12-0.49,0.01c-0.16-0.11-0.21-0.28-0.16-0.47   c0.07-0.26,0.26-0.43,0.48-0.53c0.8-0.36,1.62-0.55,2.49-0.31c0.47,0.13,0.86,0.4,1.25,0.68c0.23,0.16,0.25,0.41,0.12,0.62   c-0.12,0.18-0.37,0.24-0.62,0.11c-0.16-0.08-0.31-0.18-0.45-0.28C34.8,8.74,34.43,8.57,34,8.63L34,8.63z"/>
	<path class="st0" d="M31.45,21.02c-0.01-0.95-0.46-1.81-0.91-2.62c-0.44-0.79-0.83-1.63-1.42-2.32c-0.26-0.31-0.62-0.55-1.02-0.62   c-0.44-0.07-0.83,0.19-1.17,0.43c-1.34,0.93-2.17,2.53-2.55,4.09c-0.29,1.19-0.14,2.31,0.71,3.23c1.1,1.19,2.82,1.5,4.32,0.94   c0.38-0.14,0.8-0.37,1.09-0.66c0.23-0.23,0.48-0.55,0.61-0.85C31.31,22.17,31.46,21.54,31.45,21.02L31.45,21.02z"/>
	<path class="st1" d="M28.15,19.93c0,0,0.93-0.02,0.3-0.97c-0.63-0.95-2.37-0.08-2.84,0.94c-0.48,1.02-0.76,2.51,0.81,3.2   c1.57,0.7,2.02,0.01,2.25-0.12c0.23-0.13-1.06,0.59-2.35-0.12c-1.3-0.71-0.83-1.99-0.62-2.26c0.2-0.28,0.43-0.78,1.06-1.17   C27.27,19.1,25.94,21.03,28.15,19.93L28.15,19.93z"/>
	<path class="st3" d="M84.36,50.43c0.06,0.18,0.07,0.37,0.07,0.61v0.43c0,0.13-0.01,0.28-0.01,0.42s0.02,0.28,0.02,0.42   s-0.01,0.29-0.01,0.42c0,0.22,0.02,0.22,0.02,0.45v0.43c0,0.22-0.02,0.22-0.02,0.43c0,0.14,0,0.29,0,0.42v0.42   c0,0.14,0.01,0.28,0,0.42v0.42c0,0.14,0.01,0.29,0.02,0.43l0.07,0.42c0.03,0.19,0.1,0.37,0.22,0.49c0.13,0.11,0.31,0.17,0.5,0.17   c0.01,0,0.02,0.01,0.03,0.01c0.19,0,0.35-0.07,0.47-0.18c0.12-0.1,0.21-0.26,0.26-0.45c0.02-0.1,0.04-0.2,0.04-0.33   c0.01-0.14-0.01-0.29-0.01-0.45c0-0.22,0.01-0.22,0.01-0.45c0-0.21-0.02-0.21-0.02-0.43c0-0.16,0.02-0.3,0.02-0.45   c0-0.16-0.01-0.3-0.01-0.45c0-0.16,0.01-0.3,0.01-0.45c0-0.16,0.02-0.3,0.02-0.45c0-0.16-0.03-0.3-0.03-0.45   c0-0.16-0.01-0.3-0.01-0.45v-0.45c0-0.16,0.03-0.3,0.03-0.45c0-0.13,0.01-0.27,0.02-0.42c0.01-0.12,0-0.27,0.02-0.41   c0.02-0.18,0.1-0.31,0.17-0.45c0.09-0.13,0.18-0.27,0.31-0.36c0.12-0.08,0.28-0.12,0.46-0.17c0.06-0.01,0.12-0.02,0.2-0.02   c0.03-0.01,0.07-0.02,0.1-0.02c0.07-0.01,0.13-0.02,0.2-0.02c0.14-0.02,0.3-0.03,0.46-0.06c0.16-0.03,0.32-0.08,0.42-0.18   c0.12-0.11,0.19-0.27,0.19-0.41c0-0.16-0.09-0.29-0.21-0.4c-0.11-0.1-0.26-0.18-0.41-0.19c-0.08-0.01-0.07-0.06-0.14-0.07   l-0.37-0.03c-0.12-0.01-0.26-0.02-0.38-0.02c-0.13,0-0.28,0.01-0.41,0.01c-0.13,0-0.28-0.01-0.41-0.01h-0.41   c-0.14,0-0.28,0.02-0.42,0.02c-0.13,0-0.27-0.01-0.41-0.01h-0.41c-0.13,0-0.28,0.01-0.41,0.01c-0.13,0-0.28,0.01-0.41,0.01   c-0.14,0-0.28-0.01-0.41-0.01c-0.01,0-0.01-0.01-0.01-0.01c-0.14,0-0.29,0-0.43,0.01c-0.14,0.02-0.28,0.06-0.42,0.08   c-0.18,0.02-0.31,0.1-0.42,0.2c-0.11,0.11-0.2,0.27-0.19,0.42c0.01,0.16,0.08,0.31,0.19,0.41c0.1,0.09,0.25,0.13,0.41,0.16   c0.11,0.02,0.21,0.06,0.32,0.07c0.11,0.02,0.23,0.02,0.33,0.03c0.16,0.02,0.31,0.02,0.46,0.07c0.13,0.04,0.25,0.1,0.33,0.17   c0.11,0.07,0.18,0.18,0.24,0.28C84.25,50.21,84.33,50.31,84.36,50.43L84.36,50.43z"/>
	<path class="st3" d="M96.52,57.39l0.01,0.01c0.12,0,0.23-0.06,0.33-0.12c0.1-0.06,0.19-0.13,0.26-0.23c0.07-0.1,0.14-0.2,0.18-0.32   c0.04-0.18,0.01-0.37,0.01-0.53c0-0.22,0.01-0.22,0.01-0.43c0-0.22,0.03-0.22,0.03-0.43c0-0.22-0.01-0.22-0.01-0.45   c0-0.21-0.03-0.21-0.03-0.43c0-0.22,0.02-0.22,0.02-0.43v-0.43c0-0.22,0-0.22,0-0.45h-0.01c0-0.19,0.03-0.19,0.03-0.38   c0-0.2-0.01-0.2-0.01-0.39c0-0.19-0.01-0.19-0.01-0.39c0-0.16-0.01-0.31-0.01-0.47v-0.48c0-0.16-0.01-0.31-0.01-0.47   c0-0.16,0.03-0.31,0.03-0.48c0-0.16-0.01-0.31-0.01-0.47c0-0.02-0.02-0.02-0.02-0.03c0-0.19,0.03-0.41-0.04-0.62   c-0.06-0.17-0.17-0.28-0.29-0.37c-0.12-0.09-0.28-0.14-0.45-0.14c-0.01,0-0.01-0.02-0.01-0.02c-0.17,0-0.33,0.04-0.46,0.13   c-0.13,0.09-0.21,0.25-0.27,0.4c-0.07,0.18-0.09,0.36-0.09,0.5c0,0.18,0.02,0.35,0.02,0.52v0.28c0,0.13-0.02,0.28-0.03,0.42   c-0.02,0.13-0.08,0.27-0.11,0.4c-0.04,0.14-0.09,0.26-0.16,0.36c-0.08,0.11-0.17,0.19-0.28,0.26c-0.1,0.07-0.21,0.11-0.35,0.13   c-0.17,0.03-0.35,0.09-0.53,0.09s-0.39-0.01-0.58-0.01c-0.14,0-0.28-0.01-0.41-0.01c-0.13,0-0.27,0.02-0.41,0.02   c-0.13,0-0.27,0-0.4-0.01c-0.16,0-0.31-0.02-0.48-0.04c-0.16-0.02-0.3-0.08-0.41-0.14c-0.13-0.08-0.23-0.18-0.31-0.31   c-0.07-0.11-0.1-0.26-0.13-0.41c-0.03-0.14-0.04-0.27-0.06-0.39C91.05,50.46,91,50.33,91,50.21c0-0.13,0.02-0.27,0.01-0.4   c0-0.13-0.02-0.27-0.02-0.4c0-0.16,0.01-0.36-0.08-0.56c-0.08-0.16-0.19-0.29-0.33-0.37c-0.14-0.07-0.31-0.08-0.49-0.04   c-0.17,0.04-0.29,0.12-0.39,0.23c-0.1,0.1-0.19,0.23-0.22,0.4c-0.03,0.17-0.06,0.32-0.07,0.47c-0.01,0.16,0.01,0.32,0.01,0.47   c0,0.13-0.02,0.28-0.02,0.41c0,0.13,0.01,0.27,0.01,0.4s0.02,0.27,0.02,0.41c0,0.13-0.04,0.27-0.04,0.4c0,0.13,0.03,0.27,0.03,0.41   c0,0.13-0.02,0.27-0.02,0.4s0.01,0.27,0.01,0.41c0,0.27,0,0.27-0.01,0.52v0.53c0,0.3,0.01,0.3,0.01,0.6   c0.01,0.16,0.01,0.31,0.01,0.47c0,0.16-0.03,0.31-0.03,0.47c0,0.14,0.03,0.3,0.03,0.46c0,0.13-0.02,0.28-0.01,0.41   c0.02,0.13,0.04,0.27,0.08,0.4c0.04,0.19,0.14,0.33,0.27,0.45c0.13,0.11,0.3,0.19,0.5,0.19c0.19,0,0.35-0.09,0.48-0.21   c0.12-0.11,0.2-0.27,0.25-0.46c0.02-0.13,0.01-0.27,0.01-0.4c0.01-0.13,0.02-0.28,0.02-0.41c0-0.13,0.03-0.28,0.03-0.41   c0-0.13-0.01-0.27-0.01-0.41c0-0.14-0.01-0.29,0-0.43c0.02-0.14,0.08-0.29,0.11-0.43c0.03-0.14,0.08-0.27,0.15-0.38   c0.08-0.12,0.17-0.22,0.28-0.3c0.11-0.07,0.24-0.11,0.39-0.14c0.14-0.03,0.29-0.04,0.41-0.06c0.14-0.02,0.28,0,0.41,0.01   c0.12,0,0.25-0.03,0.37-0.03c0.13,0,0.26,0,0.38,0h0.38c0.13-0.01,0.27,0.01,0.41,0.02c0.13,0.01,0.27,0.02,0.41,0.06   c0.16,0.02,0.3,0.08,0.41,0.14c0.13,0.08,0.23,0.19,0.31,0.32c0.08,0.11,0.12,0.26,0.14,0.41c0.03,0.16,0.06,0.3,0.07,0.43   c0.02,0.17,0.07,0.31,0.06,0.45c0,0.12,0,0.25,0,0.38v0.38c0,0.12-0.03,0.25-0.02,0.38c0,0.13,0.03,0.3,0.08,0.47   c0.02,0.12,0.06,0.25,0.12,0.35c0.07,0.1,0.17,0.18,0.27,0.23C96.28,57.36,96.4,57.39,96.52,57.39L96.52,57.39z"/>
	<path class="st3" d="M99.48,57.47c0.12,0.01,0.23,0.01,0.36,0.01c0.01,0,0.01,0.01,0.02,0.01c0.14,0,0.28-0.01,0.41-0.01   c0.13,0,0.27,0.02,0.4,0.02c0.16,0,0.31-0.01,0.47-0.01h0.45c0.22,0,0.22-0.01,0.45-0.01c0.22,0,0.22,0.02,0.45,0.02   c0.23,0,0.23-0.01,0.46-0.01c0.22,0,0.22,0.01,0.45,0.01h0.02c0.02,0,0.04-0.01,0.07-0.01c0.06,0,0.06,0,0.12,0l0.32-0.03   c0.17-0.02,0.32-0.09,0.45-0.2c0.17-0.16,0.27-0.37,0.25-0.58c-0.03-0.21-0.19-0.38-0.4-0.48c-0.1-0.04-0.19-0.08-0.29-0.1   c-0.13-0.02-0.26-0.06-0.38-0.07c-0.13-0.01-0.26-0.02-0.38-0.02h-0.49c-0.16,0-0.32,0.03-0.48,0.03c-0.2,0-0.39-0.03-0.59-0.03   c-0.03,0-0.08,0.02-0.11,0.02c-0.25,0-0.46-0.03-0.64-0.1c-0.16-0.06-0.28-0.14-0.39-0.25c-0.11-0.1-0.18-0.23-0.23-0.39   c-0.07-0.18-0.1-0.33-0.1-0.47c0.01-0.17,0-0.32,0.02-0.45c0.04-0.16,0.11-0.29,0.2-0.4c0.08-0.11,0.19-0.2,0.33-0.28   c0.11-0.06,0.26-0.11,0.41-0.13c0.14-0.02,0.28-0.02,0.41-0.03c0.14-0.02,0.28-0.01,0.41-0.01c0.16,0,0.31-0.03,0.47-0.03   c0.16,0,0.3,0.03,0.46,0.03c0.07,0,0.07-0.01,0.13-0.01c0.12,0,0.23-0.02,0.36-0.04c0.12-0.02,0.23-0.06,0.33-0.1   c0.11-0.06,0.21-0.12,0.28-0.21c0.07-0.1,0.13-0.2,0.13-0.33c0-0.13-0.07-0.25-0.13-0.36c-0.08-0.09-0.17-0.17-0.3-0.22   c-0.13-0.07-0.27-0.09-0.37-0.11c-0.11-0.01-0.21-0.04-0.31-0.04c-0.02,0-0.02,0.03-0.04,0.03c-0.12,0-0.26-0.02-0.38-0.02h-0.39   c-0.13,0-0.26-0.01-0.39-0.01c-0.18,0-0.33,0.01-0.49-0.01c-0.17-0.02-0.32-0.04-0.47-0.1c-0.13-0.04-0.25-0.11-0.33-0.19   c-0.09-0.09-0.13-0.2-0.19-0.31c-0.04-0.11-0.09-0.22-0.1-0.36c0-0.06,0.01-0.11,0.01-0.17c0-0.03-0.02-0.08-0.02-0.11   c0-0.18,0.03-0.35,0.1-0.49c0.07-0.16,0.19-0.28,0.33-0.38c0.13-0.08,0.3-0.11,0.48-0.14c0.17-0.02,0.31-0.06,0.47-0.07   c0.16-0.02,0.31-0.02,0.47-0.02h0.37c0.12,0,0.23-0.01,0.36-0.01c0.12,0,0.25,0.03,0.37,0.03c0.12,0,0.12-0.04,0.26-0.04   c0.18,0,0.38,0,0.59-0.1c0.11-0.06,0.19-0.13,0.26-0.22c0.07-0.1,0.13-0.2,0.14-0.31c0.01-0.11-0.02-0.23-0.09-0.36   c-0.06-0.09-0.14-0.16-0.28-0.23c-0.11-0.07-0.22-0.12-0.31-0.14c-0.11-0.03-0.22-0.02-0.33-0.03c-0.11-0.01-0.22-0.02-0.33-0.02   c-0.14,0-0.29-0.02-0.43-0.02c-0.14,0-0.28,0.01-0.42,0.01s-0.29,0.01-0.43,0.01s-0.29-0.02-0.42-0.02c-0.14,0-0.29-0.01-0.43-0.01   s-0.29,0.01-0.43,0.01c-0.13,0-0.28,0.02-0.42,0.02h-0.01c-0.12,0-0.26-0.01-0.38,0.01c-0.13,0.01-0.26,0.04-0.37,0.07   c-0.19,0.04-0.37,0.1-0.48,0.22c-0.12,0.12-0.19,0.29-0.23,0.48c-0.02,0.13-0.03,0.28-0.03,0.43c0,0.16-0.02,0.3-0.02,0.46   c0,0.14,0.01,0.29,0.01,0.45c0,0.15-0.01,0.3-0.01,0.45v0.46c0,0.14,0.02,0.3,0.02,0.45s-0.01,0.3-0.01,0.45   c0,0.16,0.01,0.3,0.01,0.46v0.45c0,0.14-0.03,0.3-0.03,0.45c0,0.16,0.04,0.3,0.04,0.46c0,0.14-0.01,0.3-0.01,0.45   s0.01,0.3,0.01,0.45c0,0.16-0.03,0.3-0.03,0.46c0,0.14-0.01,0.3-0.01,0.45c0,0.16,0.04,0.3,0.04,0.45c0,0.11-0.03,0.2-0.02,0.29   c0.02,0.18,0.09,0.33,0.17,0.46c0.09,0.16,0.2,0.27,0.35,0.36C99.14,57.42,99.3,57.46,99.48,57.47L99.48,57.47z"/>
	<path class="st3" d="M109.85,52.12c0,0.26,0.02,0.26,0.02,0.51c0,0.26-0.02,0.26-0.02,0.5c0,0.16,0.01,0.3,0.01,0.46   c0,0.14,0.01,0.3,0.01,0.46c0,0.14,0,0.3,0,0.45v0.46c0,0.14,0.01,0.3,0.01,0.45c0,0.16-0.02,0.3-0.02,0.46s0.02,0.3,0.03,0.43   c0.01,0.16,0.01,0.31,0.03,0.45c0.04,0.17,0.14,0.28,0.26,0.38c0.1,0.1,0.22,0.18,0.39,0.2c0.04,0.01,0.09,0.03,0.13,0.03   c0.19,0,0.35-0.07,0.48-0.19c0.12-0.1,0.19-0.26,0.23-0.45c0.03-0.18,0.07-0.35,0.07-0.51v-0.41c0-0.13-0.02-0.28-0.02-0.41   c0-0.14,0.01-0.28,0.01-0.42c0-0.13-0.02-0.28-0.02-0.41v-0.41c0-0.14,0.02-0.28,0.02-0.42c0-0.19,0.02-0.19,0.02-0.38v-0.38   c0-0.2-0.01-0.2-0.01-0.39c0-0.19-0.01-0.19-0.01-0.38c0-0.17-0.01-0.32-0.01-0.49c0-0.16-0.01-0.32-0.01-0.49   c0-0.16,0.02-0.32,0.02-0.48c0-0.17-0.02-0.33-0.02-0.49c0-0.14,0.03-0.28,0.03-0.42c0-0.13-0.01-0.28-0.01-0.41   c0-0.17-0.03-0.39-0.16-0.6c-0.1-0.18-0.28-0.3-0.49-0.35c-0.2-0.04-0.42,0-0.59,0.13c-0.17,0.13-0.29,0.3-0.32,0.51   c0,0.07,0.02,0.07,0.01,0.13l-0.03,0.36c-0.01,0.12-0.06,0.25-0.06,0.37c0,0.13,0.01,0.26,0.01,0.39c0,0.12,0,0.26,0,0.38v0.39   c0,0.12,0.02,0.26,0.02,0.38C109.87,51.81,109.85,51.81,109.85,52.12L109.85,52.12z"/>
	<path class="st3" d="M113.11,54.92c0.04,0.12,0.08,0.26,0.14,0.37c0.06,0.12,0.14,0.22,0.21,0.33c0.07,0.11,0.14,0.21,0.22,0.31   c0.09,0.11,0.14,0.23,0.23,0.32c0.09,0.1,0.19,0.18,0.29,0.27l0.37,0.26c0.12,0.08,0.24,0.17,0.37,0.23   c0.13,0.08,0.26,0.17,0.39,0.22c0.13,0.07,0.28,0.11,0.41,0.17c0.13,0.06,0.29,0.08,0.42,0.11c0.14,0.04,0.29,0.09,0.43,0.11   c0.14,0.02,0.29,0.07,0.43,0.08c0.14,0.01,0.3,0,0.45,0c0.13,0,0.27-0.01,0.4-0.02l0.41-0.03c0.13-0.02,0.27-0.03,0.4-0.07   c0.13-0.02,0.26-0.07,0.39-0.11c0.17-0.04,0.32-0.12,0.48-0.2c0.14-0.09,0.29-0.19,0.42-0.3c0.11-0.11,0.2-0.21,0.23-0.33   c0.04-0.13,0.03-0.27-0.01-0.41c-0.06-0.14-0.13-0.25-0.25-0.32c-0.1-0.08-0.22-0.14-0.38-0.16c-0.14-0.01-0.29,0.01-0.41,0.03   c-0.14,0.02-0.29,0.04-0.41,0.1c-0.1,0.06-0.2,0.09-0.31,0.13c-0.1,0.03-0.2,0.08-0.32,0.11c-0.19,0.06-0.36,0.11-0.51,0.12   c-0.19,0.02-0.37,0-0.53-0.03c-0.14-0.02-0.28-0.06-0.41-0.1c-0.13-0.04-0.29-0.06-0.41-0.11c-0.13-0.06-0.26-0.14-0.37-0.22   c-0.12-0.07-0.23-0.16-0.35-0.26c-0.1-0.09-0.19-0.2-0.29-0.31c-0.09-0.1-0.17-0.22-0.25-0.35c-0.08-0.11-0.16-0.23-0.22-0.37   c-0.06-0.12-0.11-0.25-0.17-0.39c-0.04-0.13-0.09-0.28-0.11-0.43c-0.03-0.14-0.04-0.29-0.04-0.46c-0.01-0.14-0.02-0.29-0.02-0.46   c0-0.16,0.02-0.31,0.04-0.46c0.02-0.16,0.06-0.31,0.1-0.46c0.03-0.14,0.1-0.29,0.16-0.42c0.07-0.14,0.11-0.3,0.19-0.42   c0.09-0.13,0.18-0.26,0.29-0.38c0.09-0.11,0.21-0.21,0.32-0.32c0.12-0.1,0.22-0.22,0.36-0.3c0.13-0.09,0.27-0.17,0.41-0.22   c0.13-0.07,0.29-0.1,0.45-0.13c0.14-0.03,0.3-0.08,0.46-0.09c0.14-0.01,0.3,0.02,0.47,0.03c0.16,0.01,0.32,0.01,0.49,0.04   c0.14,0.03,0.3,0.11,0.47,0.17c0.14,0.04,0.28,0.07,0.4,0.09c0.14,0.01,0.28-0.01,0.4-0.04c0.13-0.02,0.24-0.1,0.33-0.18   c0.09-0.09,0.17-0.19,0.21-0.32c0.03-0.13,0.03-0.27-0.01-0.38c-0.04-0.11-0.12-0.21-0.23-0.31c-0.09-0.07-0.18-0.12-0.26-0.17   c-0.11-0.07-0.23-0.12-0.37-0.17c-0.12-0.04-0.26-0.08-0.4-0.11c-0.18-0.04-0.37-0.07-0.53-0.08c-0.19-0.01-0.37-0.01-0.55-0.01   c-0.12,0-0.12,0.03-0.23,0.03c-0.16,0-0.29,0-0.43,0.01c-0.14,0.01-0.29,0.02-0.42,0.04c-0.14,0.02-0.29,0.06-0.42,0.09   c-0.14,0.04-0.29,0.06-0.42,0.1c-0.13,0.06-0.25,0.13-0.38,0.2c-0.13,0.06-0.28,0.1-0.4,0.17c-0.12,0.08-0.23,0.17-0.35,0.26   c-0.11,0.09-0.23,0.17-0.35,0.26l-0.31,0.3c-0.1,0.11-0.2,0.25-0.29,0.37c-0.1,0.12-0.17,0.26-0.24,0.39   c-0.09,0.13-0.14,0.27-0.21,0.41c-0.07,0.14-0.12,0.28-0.18,0.42c-0.04,0.14-0.08,0.3-0.11,0.46c-0.03,0.14-0.07,0.29-0.09,0.45   c-0.02,0.17-0.03,0.32-0.04,0.48c-0.01,0.17-0.02,0.32-0.02,0.48c0.01,0.16-0.01,0.32,0.01,0.48c0.02,0.17,0.08,0.32,0.11,0.48   c0.03,0.17,0.03,0.33,0.08,0.48C112.97,54.63,113.05,54.78,113.11,54.92L113.11,54.92z"/>
	<path class="st3" d="M122.05,57.47c0.12,0.01,0.23,0.01,0.36,0.01c0.01,0,0.01,0.01,0.02,0.01c0.14,0,0.28-0.01,0.41-0.01   c0.13,0,0.27,0.02,0.4,0.02c0.16,0,0.31-0.01,0.47-0.01h0.45c0.22,0,0.22-0.01,0.45-0.01c0.22,0,0.22,0.02,0.45,0.02   c0.23,0,0.23-0.01,0.46-0.01c0.22,0,0.22,0.01,0.45,0.01h0.02c0.02,0,0.04-0.01,0.07-0.01c0.06,0,0.06,0,0.12,0l0.32-0.03   c0.17-0.02,0.32-0.09,0.45-0.2c0.17-0.16,0.27-0.37,0.25-0.58c-0.03-0.21-0.19-0.38-0.4-0.48c-0.1-0.04-0.19-0.08-0.29-0.1   c-0.13-0.02-0.26-0.06-0.38-0.07c-0.13-0.01-0.26-0.02-0.38-0.02h-0.49c-0.16,0-0.32,0.03-0.48,0.03c-0.2,0-0.39-0.03-0.59-0.03   c-0.03,0-0.08,0.02-0.11,0.02c-0.25,0-0.46-0.03-0.64-0.1c-0.16-0.06-0.28-0.14-0.39-0.25c-0.11-0.1-0.18-0.23-0.23-0.39   c-0.07-0.18-0.1-0.33-0.1-0.47c0.01-0.17,0-0.32,0.02-0.45c0.04-0.16,0.11-0.29,0.2-0.4c0.08-0.11,0.19-0.2,0.33-0.28   c0.11-0.06,0.26-0.11,0.41-0.13c0.14-0.02,0.28-0.02,0.41-0.03c0.14-0.02,0.28-0.01,0.41-0.01c0.16,0,0.31-0.03,0.47-0.03   c0.16,0,0.3,0.03,0.46,0.03c0.07,0,0.07-0.01,0.13-0.01c0.12,0,0.23-0.02,0.36-0.04c0.12-0.02,0.23-0.06,0.33-0.1   c0.11-0.06,0.21-0.12,0.28-0.21c0.07-0.1,0.13-0.2,0.13-0.33c0-0.13-0.07-0.25-0.13-0.36c-0.08-0.09-0.17-0.17-0.3-0.22   c-0.13-0.07-0.27-0.09-0.37-0.11c-0.11-0.01-0.21-0.04-0.31-0.04c-0.02,0-0.02,0.03-0.04,0.03c-0.12,0-0.26-0.02-0.38-0.02h-0.39   c-0.13,0-0.26-0.01-0.39-0.01c-0.18,0-0.33,0.01-0.49-0.01c-0.17-0.02-0.32-0.04-0.47-0.1c-0.13-0.04-0.25-0.11-0.33-0.19   c-0.09-0.09-0.13-0.2-0.19-0.31c-0.04-0.11-0.09-0.22-0.1-0.36c0-0.06,0.01-0.11,0.01-0.17c0-0.03-0.02-0.08-0.02-0.11   c0-0.18,0.03-0.35,0.1-0.49c0.07-0.16,0.19-0.28,0.33-0.38c0.13-0.08,0.3-0.11,0.48-0.14c0.17-0.02,0.31-0.06,0.47-0.07   c0.16-0.02,0.31-0.02,0.47-0.02h0.37c0.12,0,0.23-0.01,0.36-0.01c0.12,0,0.25,0.03,0.37,0.03c0.12,0,0.12-0.04,0.26-0.04   c0.18,0,0.38,0,0.59-0.1c0.11-0.06,0.19-0.13,0.26-0.22c0.07-0.1,0.13-0.2,0.14-0.31c0.01-0.11-0.02-0.23-0.09-0.36   c-0.06-0.09-0.14-0.16-0.28-0.23c-0.11-0.07-0.22-0.12-0.31-0.14c-0.11-0.03-0.22-0.02-0.33-0.03c-0.11-0.01-0.22-0.02-0.33-0.02   c-0.14,0-0.29-0.02-0.43-0.02s-0.28,0.01-0.42,0.01s-0.29,0.01-0.43,0.01s-0.29-0.02-0.42-0.02c-0.14,0-0.29-0.01-0.43-0.01   s-0.29,0.01-0.43,0.01c-0.13,0-0.28,0.02-0.42,0.02h-0.01c-0.12,0-0.26-0.01-0.38,0.01c-0.13,0.01-0.26,0.04-0.37,0.07   c-0.19,0.04-0.37,0.1-0.48,0.22c-0.12,0.12-0.19,0.29-0.23,0.48c-0.02,0.13-0.03,0.28-0.03,0.43c0,0.16-0.02,0.3-0.02,0.46   c0,0.14,0.01,0.29,0.01,0.45c0,0.15-0.01,0.3-0.01,0.45v0.46c0,0.14,0.02,0.3,0.02,0.45s-0.01,0.3-0.01,0.45   c0,0.16,0.01,0.3,0.01,0.46l0,0.45c0,0.14-0.03,0.3-0.03,0.45c0,0.16,0.04,0.3,0.04,0.46c0,0.14-0.01,0.3-0.01,0.45   s0.01,0.3,0.01,0.45c0,0.16-0.03,0.3-0.03,0.46c0,0.14-0.01,0.3-0.01,0.45c0,0.16,0.04,0.3,0.04,0.45c0,0.11-0.03,0.2-0.02,0.29   c0.02,0.18,0.09,0.33,0.17,0.46c0.09,0.16,0.2,0.27,0.35,0.36C121.71,57.42,121.88,57.46,122.05,57.47L122.05,57.47z"/>
	<path class="st3" d="M131.9,54.92c0.04,0.12,0.08,0.26,0.14,0.37c0.06,0.12,0.14,0.22,0.21,0.33c0.07,0.11,0.14,0.21,0.22,0.31   c0.09,0.11,0.14,0.23,0.23,0.32c0.09,0.1,0.19,0.18,0.29,0.27l0.37,0.26c0.12,0.08,0.25,0.17,0.37,0.23   c0.13,0.08,0.26,0.17,0.39,0.22c0.13,0.07,0.28,0.11,0.41,0.17c0.13,0.06,0.29,0.08,0.42,0.11c0.14,0.04,0.29,0.09,0.43,0.11   c0.14,0.02,0.29,0.07,0.43,0.08c0.14,0.01,0.3,0,0.45,0c0.13,0,0.27-0.01,0.4-0.02l0.41-0.03c0.13-0.02,0.27-0.03,0.4-0.07   c0.13-0.02,0.26-0.07,0.39-0.11c0.17-0.04,0.32-0.12,0.48-0.2c0.14-0.09,0.29-0.19,0.42-0.3c0.11-0.11,0.2-0.21,0.23-0.33   c0.04-0.13,0.03-0.27-0.01-0.41c-0.06-0.14-0.13-0.25-0.25-0.32c-0.1-0.08-0.22-0.14-0.38-0.16c-0.14-0.01-0.29,0.01-0.41,0.03   c-0.14,0.02-0.29,0.04-0.41,0.1c-0.1,0.06-0.2,0.09-0.31,0.13c-0.1,0.03-0.2,0.08-0.32,0.11c-0.19,0.06-0.36,0.11-0.51,0.12   c-0.19,0.02-0.37,0-0.53-0.03c-0.14-0.02-0.28-0.06-0.41-0.1c-0.13-0.04-0.29-0.06-0.41-0.11c-0.13-0.06-0.26-0.14-0.37-0.22   c-0.12-0.07-0.23-0.16-0.35-0.26c-0.1-0.09-0.19-0.2-0.29-0.31c-0.09-0.1-0.17-0.22-0.25-0.35c-0.08-0.11-0.16-0.23-0.22-0.37   c-0.06-0.12-0.11-0.25-0.17-0.39c-0.04-0.13-0.09-0.28-0.11-0.43c-0.03-0.14-0.04-0.29-0.04-0.46c-0.01-0.14-0.02-0.29-0.02-0.46   c0-0.16,0.02-0.31,0.04-0.46c0.02-0.16,0.06-0.31,0.1-0.46c0.03-0.14,0.1-0.29,0.16-0.42c0.07-0.14,0.11-0.3,0.19-0.42   c0.09-0.13,0.18-0.26,0.29-0.38c0.09-0.11,0.21-0.21,0.32-0.32c0.12-0.1,0.22-0.22,0.36-0.3c0.13-0.09,0.27-0.17,0.41-0.22   c0.13-0.07,0.29-0.1,0.45-0.13c0.14-0.03,0.3-0.08,0.46-0.09c0.14-0.01,0.3,0.02,0.47,0.03c0.16,0.01,0.32,0.01,0.49,0.04   c0.14,0.03,0.3,0.11,0.47,0.17c0.14,0.04,0.28,0.07,0.4,0.09c0.14,0.01,0.28-0.01,0.4-0.04c0.13-0.02,0.25-0.1,0.33-0.18   c0.09-0.09,0.17-0.19,0.21-0.32c0.03-0.13,0.03-0.27-0.01-0.38c-0.04-0.11-0.12-0.21-0.23-0.31c-0.09-0.07-0.18-0.12-0.26-0.17   c-0.11-0.07-0.23-0.12-0.37-0.17c-0.12-0.04-0.26-0.08-0.4-0.11c-0.18-0.04-0.37-0.07-0.53-0.08c-0.19-0.01-0.37-0.01-0.55-0.01   c-0.12,0-0.12,0.03-0.23,0.03c-0.16,0-0.29,0-0.43,0.01c-0.14,0.01-0.29,0.02-0.42,0.04c-0.14,0.02-0.29,0.06-0.42,0.09   c-0.14,0.04-0.29,0.06-0.42,0.1c-0.13,0.06-0.25,0.13-0.38,0.2c-0.13,0.06-0.28,0.1-0.4,0.17c-0.12,0.08-0.23,0.17-0.35,0.26   c-0.11,0.09-0.23,0.17-0.35,0.26l-0.31,0.3c-0.1,0.11-0.2,0.25-0.29,0.37c-0.1,0.12-0.17,0.26-0.25,0.39   c-0.09,0.13-0.14,0.27-0.21,0.41c-0.07,0.14-0.12,0.28-0.18,0.42c-0.04,0.14-0.08,0.3-0.11,0.46c-0.03,0.14-0.07,0.29-0.09,0.45   c-0.02,0.17-0.03,0.32-0.04,0.48c-0.01,0.17-0.02,0.32-0.02,0.48c0.01,0.16-0.01,0.32,0.01,0.48c0.02,0.17,0.08,0.32,0.11,0.48   c0.03,0.17,0.03,0.33,0.08,0.48C131.77,54.63,131.85,54.78,131.9,54.92L131.9,54.92z"/>
	<path class="st3" d="M147.7,56.53c-0.08-0.1-0.18-0.17-0.28-0.23c-0.09-0.07-0.19-0.12-0.31-0.16c-0.16-0.06-0.31-0.11-0.46-0.18   c-0.16-0.07-0.29-0.17-0.42-0.25c-0.16-0.08-0.3-0.16-0.43-0.27c-0.13-0.11-0.27-0.21-0.39-0.35l-0.25-0.3   c-0.08-0.11-0.13-0.22-0.2-0.33c-0.07-0.11-0.11-0.23-0.17-0.35c-0.04-0.07-0.08-0.13-0.1-0.21c-0.02-0.2,0.09-0.39,0.21-0.53   c0.12-0.04,0.24-0.09,0.36-0.16c0.13-0.07,0.26-0.11,0.37-0.19c0.12-0.09,0.23-0.17,0.32-0.27c0.1-0.1,0.19-0.2,0.27-0.32   c0.08-0.11,0.16-0.23,0.2-0.37c0.06-0.12,0.08-0.27,0.11-0.4c0.03-0.17,0.09-0.32,0.1-0.49c0-0.09,0.01-0.18,0-0.27   c0-0.09,0-0.19-0.01-0.28c-0.01-0.17-0.04-0.33-0.08-0.5c-0.03-0.16-0.08-0.31-0.16-0.46c-0.07-0.14-0.14-0.29-0.24-0.42   c-0.1-0.12-0.22-0.22-0.36-0.33c-0.14-0.12-0.29-0.22-0.43-0.3c-0.17-0.09-0.33-0.16-0.5-0.2c-0.14-0.04-0.28-0.09-0.41-0.11   c-0.14-0.02-0.28-0.01-0.41-0.02c-0.14-0.02-0.28-0.06-0.42-0.06h-0.02c-0.14,0-0.28,0.01-0.42,0.01c-0.14,0-0.29,0.02-0.42,0   c-0.16-0.01-0.3-0.06-0.45-0.07h-0.45c-0.14,0-0.3,0.02-0.45,0.02c-0.1,0-0.1-0.02-0.21-0.02c-0.14,0-0.28,0.02-0.41,0.06   c-0.03,0-0.02,0.03-0.06,0.04c-0.13,0.02-0.26,0.06-0.37,0.12c-0.11,0.07-0.2,0.16-0.27,0.27c-0.07,0.11-0.1,0.23-0.13,0.37   c-0.02,0.12-0.06,0.25-0.07,0.38c-0.01,0.12-0.04,0.26-0.04,0.38c0,0.01,0,0.02,0,0.03v0.01c0,0.13,0.01,0.28,0.01,0.42   c0,0.13-0.01,0.27-0.01,0.41v0.03c0,0.14,0.03,0.28,0.03,0.42c0,0.13-0.01,0.28-0.01,0.41c0,0.14-0.01,0.29-0.01,0.43   c0,0.2-0.01,0.2-0.01,0.4c0,0,0,0,0,0.01v0.02c0,0.19,0.01,0.2,0.01,0.38v0.38c0,0.01,0,0.01,0,0.01v0.03c0,0.2,0.02,0.2,0.02,0.4   c0,0.14,0,0.3,0,0.45v0.45c0,0.13,0.01,0.28,0.01,0.41c0,0.16-0.04,0.3-0.04,0.45v0.03v0.46c0,0.16,0.03,0.3,0.04,0.45   c0.02,0.16,0.02,0.3,0.07,0.43c0.04,0.17,0.14,0.32,0.27,0.41c0.12,0.1,0.3,0.17,0.47,0.17l0.01-0.04c0.17,0,0.31-0.03,0.45-0.13   c0.12-0.09,0.23-0.21,0.28-0.37c0.02-0.07,0.04-0.12,0.06-0.18c0-0.01,0-0.02-0.01-0.03c0.01,0,0.01,0,0.01,0v-0.03   c0.02-0.16,0.03-0.3,0.03-0.45c0.01-0.16,0.01-0.31,0.01-0.46c0-0.09,0.01-0.18,0.01-0.26c0,0,0,0,0-0.01v-0.03   c0-0.01-0.01-0.01-0.01-0.03c0-0.12,0.02-0.25,0.03-0.36c0-0.13,0.01-0.27,0.04-0.39c0.03-0.16,0.06-0.3,0.13-0.41   c0.08-0.12,0.18-0.22,0.31-0.3c0.11-0.08,0.25-0.12,0.4-0.17h0.02c0.67,0.03,0.85,0.65,0.85,0.65l0.02-0.01   c0.03,0.1,0.06,0.2,0.1,0.3c0.06,0.13,0.14,0.26,0.21,0.39c0.07,0.12,0.12,0.27,0.2,0.39c0.08,0.12,0.17,0.26,0.26,0.37   c0.09,0.12,0.21,0.2,0.31,0.31c0.1,0.1,0.19,0.22,0.3,0.31c0.11,0.1,0.22,0.2,0.33,0.29c0.12,0.08,0.24,0.17,0.37,0.23   c0.12,0.08,0.27,0.13,0.39,0.19c0.13,0.07,0.27,0.13,0.4,0.18c0.14,0.06,0.28,0.07,0.41,0.1c0.13,0.03,0.27,0.06,0.41,0.06v-0.01   h0.04c0.17,0,0.31-0.01,0.45-0.09c0.2-0.11,0.28-0.25,0.3-0.35C147.85,56.86,147.84,56.69,147.7,56.53L147.7,56.53z M141.55,50.82   c0.01-0.12,0-0.26,0.03-0.39c0.04-0.17,0.12-0.29,0.21-0.41c0.09-0.13,0.2-0.25,0.35-0.32c0.13-0.07,0.28-0.12,0.45-0.14   c0.08-0.01,0.16-0.01,0.25-0.02c0.04,0,0.09,0.01,0.12,0.01c0.16,0,0.29-0.01,0.42,0.01c0.14,0.02,0.28,0.06,0.4,0.1   c0.13,0.04,0.26,0.11,0.37,0.18c0.12,0.08,0.22,0.16,0.3,0.25c0.1,0.1,0.2,0.18,0.27,0.29c0.06,0.12,0.06,0.25,0.08,0.39   c0,0.04,0.01,0.09,0.01,0.13c0,0.12-0.01,0.23-0.04,0.35c-0.04,0.17-0.12,0.32-0.25,0.47c-0.09,0.09-0.17,0.17-0.26,0.23   c-0.09,0.07-0.19,0.13-0.29,0.18c-0.14,0.04-0.29,0.08-0.42,0.11c-0.16,0.03-0.3,0.07-0.43,0.07c-0.16,0.01-0.3,0.01-0.45-0.01   c-0.14-0.02-0.29-0.04-0.43-0.1c-0.14-0.06-0.27-0.14-0.37-0.25c-0.1-0.1-0.17-0.22-0.21-0.37c-0.04-0.13-0.07-0.26-0.09-0.39   c-0.01-0.07-0.01-0.12-0.01-0.19V50.82L141.55,50.82z"/>
	<path class="st3" d="M149.63,57.47c0.12,0.01,0.23,0.01,0.36,0.01c0.01,0,0.01,0.01,0.02,0.01c0.14,0,0.28-0.01,0.41-0.01   c0.13,0,0.27,0.02,0.4,0.02c0.16,0,0.31-0.01,0.47-0.01h0.45c0.22,0,0.22-0.01,0.45-0.01c0.22,0,0.22,0.02,0.45,0.02   c0.23,0,0.23-0.01,0.46-0.01c0.22,0,0.22,0.01,0.45,0.01h0.02c0.02,0,0.04-0.01,0.07-0.01c0.06,0,0.06,0,0.12,0l0.32-0.03   c0.17-0.02,0.32-0.09,0.45-0.2c0.17-0.16,0.27-0.37,0.25-0.58c-0.03-0.21-0.19-0.38-0.4-0.48c-0.1-0.04-0.19-0.08-0.29-0.1   c-0.13-0.02-0.26-0.06-0.38-0.07c-0.13-0.01-0.26-0.02-0.38-0.02h-0.49c-0.16,0-0.32,0.03-0.48,0.03c-0.2,0-0.39-0.03-0.59-0.03   c-0.03,0-0.08,0.02-0.11,0.02c-0.25,0-0.46-0.03-0.64-0.1c-0.16-0.06-0.28-0.14-0.39-0.25c-0.11-0.1-0.18-0.23-0.23-0.39   c-0.07-0.18-0.1-0.33-0.1-0.47c0.01-0.17,0-0.32,0.02-0.45c0.04-0.16,0.11-0.29,0.2-0.4c0.08-0.11,0.19-0.2,0.33-0.28   c0.11-0.06,0.26-0.11,0.41-0.13c0.14-0.02,0.28-0.02,0.41-0.03c0.14-0.02,0.28-0.01,0.41-0.01c0.16,0,0.31-0.03,0.47-0.03   s0.3,0.03,0.46,0.03c0.07,0,0.07-0.01,0.13-0.01c0.12,0,0.23-0.02,0.36-0.04c0.12-0.02,0.23-0.06,0.33-0.1   c0.11-0.06,0.21-0.12,0.28-0.21c0.07-0.1,0.13-0.2,0.13-0.33c0-0.13-0.07-0.25-0.13-0.36c-0.08-0.09-0.17-0.17-0.3-0.22   c-0.13-0.07-0.27-0.09-0.37-0.11c-0.11-0.01-0.21-0.04-0.31-0.04c-0.02,0-0.02,0.03-0.04,0.03c-0.12,0-0.26-0.02-0.38-0.02h-0.39   c-0.13,0-0.26-0.01-0.39-0.01c-0.18,0-0.33,0.01-0.49-0.01c-0.17-0.02-0.32-0.04-0.47-0.1c-0.13-0.04-0.25-0.11-0.33-0.19   c-0.09-0.09-0.13-0.2-0.19-0.31c-0.04-0.11-0.09-0.22-0.1-0.36c0-0.06,0.01-0.11,0.01-0.17c0-0.03-0.02-0.08-0.02-0.11   c0-0.18,0.03-0.35,0.1-0.49c0.07-0.16,0.19-0.28,0.33-0.38c0.13-0.08,0.3-0.11,0.48-0.14c0.17-0.02,0.31-0.06,0.47-0.07   c0.16-0.02,0.31-0.02,0.47-0.02h0.37c0.12,0,0.23-0.01,0.36-0.01c0.12,0,0.25,0.03,0.37,0.03c0.12,0,0.12-0.04,0.26-0.04   c0.18,0,0.38,0,0.59-0.1c0.11-0.06,0.19-0.13,0.26-0.22c0.07-0.1,0.13-0.2,0.14-0.31c0.01-0.11-0.02-0.23-0.09-0.36   c-0.06-0.09-0.14-0.16-0.28-0.23c-0.11-0.07-0.22-0.12-0.31-0.14c-0.11-0.03-0.22-0.02-0.33-0.03c-0.11-0.01-0.22-0.02-0.33-0.02   c-0.14,0-0.29-0.02-0.43-0.02c-0.14,0-0.28,0.01-0.42,0.01c-0.14,0-0.29,0.01-0.43,0.01c-0.14,0-0.29-0.02-0.42-0.02   c-0.14,0-0.29-0.01-0.43-0.01s-0.29,0.01-0.43,0.01c-0.13,0-0.28,0.02-0.42,0.02h-0.01c-0.12,0-0.26-0.01-0.38,0.01   c-0.13,0.01-0.26,0.04-0.37,0.07c-0.19,0.04-0.37,0.1-0.48,0.22c-0.12,0.12-0.19,0.29-0.23,0.48c-0.02,0.13-0.03,0.28-0.03,0.43   c0,0.16-0.02,0.3-0.02,0.46c0,0.14,0.01,0.29,0.01,0.45c0,0.15-0.01,0.3-0.01,0.45v0.46c0,0.14,0.02,0.3,0.02,0.45   s-0.01,0.3-0.01,0.45c0,0.16,0.01,0.3,0.01,0.46v0.45c0,0.14-0.03,0.3-0.03,0.45c0,0.16,0.04,0.3,0.04,0.46   c0,0.14-0.01,0.3-0.01,0.45s0.01,0.3,0.01,0.45c0,0.16-0.03,0.3-0.03,0.46c0,0.14-0.01,0.3-0.01,0.45c0,0.16,0.04,0.3,0.04,0.45   c0,0.11-0.03,0.2-0.02,0.29c0.02,0.18,0.09,0.33,0.17,0.46c0.09,0.16,0.2,0.27,0.35,0.36C149.28,57.42,149.45,57.46,149.63,57.47   L149.63,57.47z"/>
	<path class="st3" d="M163.88,56.31c-0.04-0.12-0.1-0.25-0.15-0.36c-0.06-0.13-0.16-0.26-0.22-0.39c-0.06-0.12-0.1-0.25-0.14-0.36   c-0.06-0.12-0.11-0.23-0.16-0.36c-0.06-0.13-0.09-0.29-0.14-0.42c-0.06-0.14-0.13-0.27-0.2-0.41l-0.17-0.41   c-0.07-0.13-0.13-0.26-0.19-0.39c-0.07-0.13-0.11-0.27-0.17-0.4c-0.06-0.12-0.1-0.26-0.16-0.39c-0.04-0.12-0.11-0.26-0.17-0.38   c-0.06-0.13-0.1-0.27-0.16-0.39c-0.06-0.13-0.12-0.26-0.18-0.38c-0.06-0.13-0.08-0.27-0.13-0.4c-0.06-0.12-0.12-0.25-0.18-0.38   c-0.06-0.11-0.1-0.23-0.16-0.35c-0.04-0.12-0.12-0.22-0.17-0.35l-0.17-0.35c-0.06-0.13-0.1-0.27-0.17-0.38   c-0.08-0.12-0.15-0.23-0.24-0.33c-0.1-0.11-0.23-0.18-0.36-0.25c-0.12-0.07-0.26-0.11-0.41-0.12c-0.14,0-0.29,0.01-0.42,0.07   c-0.13,0.06-0.26,0.13-0.37,0.25c-0.13,0.13-0.25,0.31-0.33,0.51c-0.06,0.12-0.1,0.25-0.16,0.37l-0.18,0.37   c-0.04,0.11-0.09,0.22-0.14,0.32c-0.04,0.11-0.08,0.23-0.12,0.33c-0.06,0.12-0.1,0.25-0.16,0.37c-0.04,0.11-0.1,0.23-0.16,0.35   c-0.06,0.12-0.11,0.23-0.16,0.36c-0.06,0.11-0.09,0.21-0.13,0.32c-0.06,0.1-0.1,0.21-0.14,0.31c-0.06,0.11-0.13,0.22-0.19,0.35   c-0.04,0.11-0.08,0.25-0.13,0.37c-0.04,0.11-0.12,0.22-0.17,0.35c-0.04,0.13-0.1,0.27-0.16,0.39c-0.06,0.13-0.09,0.28-0.14,0.41   l-0.18,0.38c-0.06,0.13-0.13,0.26-0.19,0.39c-0.07,0.14-0.1,0.3-0.17,0.45c-0.07,0.16-0.14,0.29-0.21,0.43   c-0.04,0.12-0.1,0.25-0.14,0.37c-0.04,0.12-0.07,0.26-0.1,0.39c-0.03,0.12-0.03,0.25,0,0.36c0.02,0.11,0.07,0.22,0.16,0.31   c0.1,0.08,0.21,0.14,0.33,0.17c0.12,0.01,0.25-0.01,0.38-0.06c0.12-0.03,0.25-0.07,0.33-0.13c0.1-0.08,0.2-0.17,0.25-0.27   c0.07-0.1,0.13-0.2,0.2-0.32c0.06-0.09,0.08-0.21,0.14-0.33c0.07-0.12,0.18-0.21,0.26-0.3c0.09-0.11,0.18-0.2,0.29-0.28   c0.1-0.07,0.22-0.12,0.36-0.16c0.12-0.04,0.25-0.09,0.38-0.1c0.14,0,0.3-0.02,0.45-0.02c0.14-0.01,0.29,0.03,0.45,0.02   c0.14,0,0.29-0.03,0.43-0.03c0.16,0,0.3,0.03,0.45,0.04c0.14,0,0.3,0.01,0.44,0.01c0.17,0.01,0.31,0.06,0.46,0.11   c0.14,0.06,0.3,0.1,0.42,0.2c0.11,0.1,0.21,0.23,0.3,0.37v0.02c0.09,0.13,0.16,0.27,0.22,0.4c0.06,0.13,0.12,0.25,0.2,0.33   c0.09,0.11,0.21,0.18,0.3,0.26c0.09,0.08,0.16,0.17,0.26,0.2c0.11,0.04,0.22,0.04,0.33,0.04c0.02,0,0.04,0.02,0.06,0.01   c0.2-0.01,0.36-0.1,0.47-0.22c0.11-0.12,0.17-0.29,0.17-0.49c0-0.01,0.02-0.01,0.02-0.02C163.95,56.57,163.91,56.44,163.88,56.31   L163.88,56.31z M160.66,53.33c0,0.18-0.01,0.32-0.09,0.43c-0.08,0.12-0.2,0.2-0.37,0.27c-0.18,0.09-0.39,0.13-0.59,0.12v-0.02   c0,0,0,0.03-0.01,0.03c-0.21,0-0.38-0.03-0.52-0.1c-0.19-0.07-0.35-0.17-0.43-0.3c-0.09-0.15-0.13-0.32-0.13-0.52   c0-0.14,0.03-0.3,0.08-0.47c0.04-0.14,0.09-0.29,0.16-0.45c0.07-0.12,0.13-0.25,0.21-0.37c0.07-0.11,0.13-0.23,0.23-0.33   c0.16-0.16,0.32-0.16,0.45-0.15c0.17,0.01,0.31,0.08,0.41,0.21c0.11,0.14,0.2,0.29,0.28,0.43c0.09,0.16,0.18,0.3,0.23,0.47   c0.04,0.13,0.08,0.25,0.1,0.36C160.68,53.08,160.66,53.21,160.66,53.33L160.66,53.33z"/>
	<path class="st3" d="M174.45,57.37c0.12,0,0.25-0.04,0.36-0.1c0.18-0.11,0.29-0.3,0.35-0.52c0.04-0.17,0.08-0.35,0.08-0.52v-0.41   c0-0.14-0.02-0.28-0.02-0.42c0-0.13,0.02-0.28,0.02-0.42c0-0.13-0.01-0.28-0.01-0.41c0-0.14-0.01-0.28-0.01-0.42   c0-0.13-0.01-0.28-0.01-0.42c0-0.27,0.03-0.27,0.03-0.54v-0.52c0-0.26-0.02-0.26-0.02-0.52v-0.4c0-0.14,0.02-0.28,0.02-0.41   c0-0.13-0.02-0.27-0.02-0.41c0-0.56,0.12-1.2-0.02-1.75c-0.27-1.06-1.77-1.11-2.54-0.56c-0.36,0.26-0.55,0.67-0.68,1.08   c-0.19,0.57-0.39,1.13-0.58,1.69c-0.06,0.14-0.09,0.31-0.14,0.46c-0.06,0.18-0.07,0.18-0.13,0.35c-0.06,0.18-0.04,0.18-0.11,0.36   c-0.06,0.18-0.08,0.17-0.13,0.35c-0.06,0.16-0.12,0.29-0.19,0.4c-0.09,0.13-0.18,0.25-0.29,0.34c-0.12,0.11-0.25,0.14-0.37,0.16   c-0.12,0-0.26-0.03-0.37-0.15c-0.1-0.08-0.17-0.19-0.23-0.3c-0.07-0.1-0.13-0.21-0.18-0.35c-0.06-0.13-0.12-0.26-0.17-0.4   l-0.17-0.4c-0.35-0.95-0.61-1.91-0.98-2.84c-0.08-0.2-0.17-0.4-0.3-0.57c-0.5-0.6-1.93-0.71-2.5-0.16   c-0.27,0.25-0.36,0.62-0.38,0.99c-0.02,0.51,0.01,1.02,0.01,1.53c0,0.14,0.01,0.3,0.01,0.45c0,0.14,0.01,0.29,0.01,0.43   s-0.01,0.3-0.01,0.45s-0.01,0.29-0.01,0.43c0,0.14-0.02,0.3-0.02,0.45c0,0.14,0.04,0.29,0.04,0.43c0,0.14-0.04,0.3-0.04,0.45v0.43   c0,0.14,0.02,0.3,0.02,0.45s-0.01,0.29-0.01,0.43c0,0.14,0.03,0.3,0.03,0.45c0,0.12-0.01,0.26,0.01,0.38   c0.01,0.13,0.02,0.26,0.06,0.39c0.04,0.19,0.14,0.33,0.28,0.43c0.14,0.11,0.3,0.19,0.49,0.18c0.19,0,0.33-0.09,0.46-0.2   c0.12-0.11,0.2-0.26,0.23-0.43c0.03-0.16,0.08-0.31,0.08-0.47c0-0.16-0.02-0.31-0.02-0.47c0-0.14,0.02-0.3,0.02-0.46   c0-0.13-0.02-0.28-0.02-0.41c0-0.13,0.01-0.28,0.01-0.41c0-0.13-0.01-0.28-0.01-0.41c0-0.13,0.03-0.28,0.03-0.41   c0-0.12-0.02-0.24-0.01-0.37c0-0.12,0.04-0.23,0.04-0.36l0.03-0.37c0.01-0.13-0.02-0.13-0.01-0.27c0.01-0.12,0.06-0.25,0.09-0.4   c0.03-0.16,0.09-0.3,0.21-0.42c0.07-0.07,0.12-0.06,0.19-0.03c0.07,0.03,0.13,0.08,0.19,0.12c0.14,0.12,0.23,0.3,0.32,0.47   c0.07,0.12,0.14,0.22,0.2,0.35c0.04,0.12,0.08,0.25,0.12,0.38l0.13,0.37c0.03,0.11,0.04,0.22,0.09,0.33l0.13,0.4   c0.04,0.13,0.12,0.26,0.17,0.39c0.04,0.14,0.06,0.29,0.1,0.42c0.04,0.13,0.08,0.28,0.12,0.41c0.03,0.11,0.1,0.21,0.13,0.32   c0.03,0.11,0.04,0.23,0.08,0.35c0.06,0.14,0.12,0.29,0.19,0.46c0.06,0.14,0.08,0.31,0.16,0.46c0.06,0.13,0.13,0.25,0.22,0.36   c0.09,0.1,0.2,0.18,0.32,0.23c0.11,0.06,0.26,0.1,0.39,0.09c0.13,0,0.27-0.06,0.38-0.12c0.12-0.07,0.22-0.16,0.3-0.28   c0.12-0.16,0.18-0.35,0.23-0.5c0.06-0.13,0.13-0.27,0.19-0.4c0.04-0.13,0.07-0.29,0.11-0.42c0.04-0.13,0.11-0.27,0.16-0.41   c0.06-0.13,0.07-0.29,0.11-0.42c0.03-0.12,0.1-0.23,0.14-0.36c0.03-0.12,0.04-0.26,0.09-0.38c0.04-0.12,0.11-0.23,0.16-0.36   c0.04-0.12,0.09-0.24,0.13-0.37l0.1-0.26c0.04-0.13,0.1-0.25,0.14-0.38c0.06-0.12,0.09-0.25,0.14-0.37   c0.06-0.12,0.12-0.25,0.19-0.36c0.11-0.2,0.23-0.33,0.38-0.43c0.12-0.08,0.21-0.08,0.32,0.02c0.12,0.12,0.18,0.29,0.21,0.49   c0.01,0.08-0.01,0.08,0,0.16c0.02,0.16,0.03,0.3,0.04,0.45c0.01,0.16,0.04,0.3,0.04,0.46c0,0.12,0,0.26,0,0.39v0.39   c0,0.13-0.01,0.27-0.01,0.4c0,0.13-0.01,0.26-0.01,0.39c0,0.13,0.03,0.27,0.03,0.39v0.4c0,0.12,0.01,0.26,0.01,0.39   c0,0.14-0.02,0.28-0.01,0.42c0.01,0.13,0.04,0.28,0.07,0.41c0.03,0.16,0.09,0.29,0.18,0.39c0.09,0.1,0.22,0.18,0.37,0.22   C174.31,57.34,174.37,57.37,174.45,57.37L174.45,57.37z"/>
	<path class="st3" d="M185.67,55.48c0.04-0.16,0.04-0.32,0.04-0.47c0.01-0.17,0.02-0.32,0.02-0.47c-0.01-0.17-0.04-0.32-0.08-0.48   c-0.04-0.16-0.07-0.32-0.14-0.46c-0.08-0.15-0.19-0.27-0.3-0.39c-0.1-0.12-0.22-0.23-0.36-0.32c-0.14-0.1-0.28-0.19-0.42-0.26   c-0.14-0.08-0.3-0.13-0.45-0.18c-0.17-0.06-0.32-0.14-0.49-0.2c-0.19-0.07-0.38-0.11-0.57-0.18c-0.11-0.03-0.23-0.09-0.36-0.13   c-0.11-0.06-0.21-0.13-0.31-0.2c-0.16-0.09-0.29-0.17-0.39-0.27c-0.12-0.11-0.22-0.23-0.28-0.37c-0.06-0.13-0.08-0.28-0.08-0.41   c0-0.13,0.02-0.28,0.07-0.4c0.06-0.12,0.13-0.25,0.22-0.35c0.09-0.1,0.21-0.17,0.33-0.23c0.12-0.07,0.25-0.11,0.37-0.14   c0.13-0.03,0.26-0.07,0.39-0.08c0.13,0,0.27-0.02,0.4-0.01c0.06,0.01,0.04,0.03,0.1,0.04c0.14,0.02,0.29,0.06,0.45,0.08   c0.17,0.01,0.36-0.02,0.57-0.02c0.12,0,0.25-0.01,0.35-0.07c0.1-0.06,0.18-0.14,0.26-0.26c0.09-0.12,0.13-0.25,0.12-0.38   c0-0.13-0.06-0.26-0.17-0.37c-0.08-0.08-0.18-0.13-0.27-0.19c-0.1-0.06-0.19-0.13-0.29-0.17c-0.14-0.03-0.3-0.04-0.46-0.07   c-0.14-0.03-0.3-0.06-0.45-0.07c-0.16-0.01-0.31-0.04-0.45-0.04c-0.16,0-0.31,0.03-0.46,0.06c-0.16,0.02-0.31,0.02-0.46,0.06   c-0.14,0.03-0.29,0.11-0.43,0.16c-0.13,0.04-0.28,0.1-0.42,0.17c-0.12,0.06-0.23,0.12-0.35,0.19c-0.11,0.07-0.23,0.13-0.32,0.21   c-0.11,0.09-0.21,0.18-0.29,0.28c-0.1,0.1-0.16,0.23-0.23,0.35c-0.07,0.12-0.16,0.23-0.21,0.37c-0.06,0.12-0.06,0.27-0.09,0.41   c-0.03,0.13-0.06,0.27-0.07,0.41c-0.01,0.13-0.01,0.27-0.01,0.41c0.01,0.17,0.03,0.32,0.08,0.47c0.04,0.16,0.13,0.29,0.21,0.42   c0.08,0.13,0.17,0.27,0.28,0.38c0.11,0.12,0.23,0.23,0.38,0.33c0.13,0.09,0.27,0.19,0.42,0.27c0.14,0.07,0.3,0.13,0.47,0.19   c0.12,0.06,0.23,0.12,0.35,0.17c0.12,0.04,0.26,0.08,0.38,0.12c0.1,0.03,0.2,0.09,0.3,0.12c0.1,0.04,0.21,0.08,0.31,0.11   c0.17,0.07,0.32,0.13,0.47,0.23c0.14,0.1,0.28,0.21,0.39,0.35c0.1,0.11,0.17,0.25,0.2,0.39c0.04,0.14,0.07,0.3,0.06,0.45   c-0.02,0.16-0.09,0.29-0.17,0.41c-0.1,0.13-0.21,0.25-0.32,0.33c-0.12,0.1-0.26,0.2-0.4,0.26c-0.13,0.04-0.28,0.03-0.42,0.06   c-0.13,0.01-0.27,0.04-0.41,0.03c-0.13-0.01-0.27-0.06-0.41-0.09c-0.13-0.02-0.25-0.06-0.39-0.1l-0.18-0.07   c-0.13-0.03-0.26-0.02-0.38-0.03c-0.13-0.01-0.26-0.01-0.38,0.01c-0.14,0.03-0.28,0.08-0.38,0.17c-0.09,0.09-0.18,0.21-0.22,0.36   c-0.03,0.14,0.01,0.27,0.06,0.38c0.06,0.14,0.18,0.25,0.22,0.29c0.07,0.06,0.14,0.1,0.22,0.14c0.1,0.06,0.2,0.11,0.3,0.16   c0.11,0.04,0.2,0.11,0.31,0.13c0.12,0.03,0.26,0.03,0.39,0.06c0.13,0.02,0.25,0.06,0.39,0.07c0.13,0.01,0.27-0.02,0.4-0.02   c0.1,0,0.21,0.01,0.32,0.01c0.04,0,0.04-0.02,0.08-0.02c0.06,0,0.11,0.03,0.18,0.03c0.14-0.01,0.29-0.02,0.43-0.04   c0.16-0.02,0.29-0.07,0.43-0.11c0.14-0.04,0.27-0.12,0.4-0.19c0.12-0.07,0.27-0.1,0.38-0.17c0.12-0.08,0.21-0.18,0.32-0.27   c0.11-0.09,0.22-0.17,0.31-0.27c0.09-0.1,0.16-0.22,0.22-0.35c0.08-0.11,0.16-0.22,0.21-0.35   C185.59,55.73,185.64,55.61,185.67,55.48L185.67,55.48z"/>
	<path class="st3" d="M186.65,54.74c0.03,0.13,0.04,0.28,0.08,0.4c0.03,0.15,0.1,0.27,0.16,0.39c0.04,0.13,0.08,0.27,0.14,0.38   c0.07,0.12,0.16,0.23,0.25,0.35c0.08,0.11,0.17,0.21,0.26,0.31c0.1,0.1,0.21,0.19,0.31,0.27c0.11,0.09,0.21,0.19,0.33,0.26   c0.11,0.07,0.26,0.1,0.38,0.16c0.12,0.06,0.26,0.11,0.39,0.14c0.11,0.04,0.23,0.08,0.37,0.11c0.11,0.02,0.23,0.04,0.37,0.06   l0.38,0.03c0.12,0,0.23,0.03,0.35,0.03c0.16,0,0.31-0.01,0.46-0.02c0.16-0.01,0.3-0.06,0.45-0.09c0.16-0.02,0.31-0.02,0.45-0.07   c0.14-0.04,0.28-0.12,0.41-0.18c0.13-0.07,0.28-0.11,0.4-0.19c0.12-0.08,0.26-0.14,0.37-0.23c0.12-0.1,0.23-0.2,0.33-0.31   c0.09-0.1,0.16-0.25,0.23-0.37c0.09-0.12,0.17-0.23,0.23-0.37c0.08-0.14,0.13-0.29,0.19-0.43c0.06-0.14,0.09-0.3,0.12-0.46   c0.03-0.14,0.09-0.3,0.11-0.46c0.01-0.16,0.02-0.31,0.02-0.47c0-0.13-0.02-0.26-0.02-0.39c0-0.12,0.01-0.26,0.01-0.38   c0-0.12-0.01-0.26-0.01-0.38c0-0.13,0.03-0.26,0.03-0.39c0-0.22-0.01-0.22-0.01-0.45c0-0.21-0.01-0.21-0.01-0.42v-0.41   c0-0.15,0.01-0.29,0.01-0.42c0-0.14,0.01-0.28,0.01-0.42c0-0.13-0.02-0.28-0.02-0.41c0-0.14-0.01-0.28-0.02-0.42   c0-0.1,0.02-0.21,0.01-0.33c-0.02-0.1-0.03-0.21-0.08-0.32c-0.06-0.13-0.12-0.25-0.22-0.32c-0.1-0.08-0.22-0.14-0.36-0.16   c-0.12-0.02-0.26,0-0.38,0.06c-0.13,0.06-0.22,0.16-0.31,0.26c-0.08,0.11-0.14,0.22-0.17,0.37l-0.07,0.45   c-0.01,0.14-0.02,0.3-0.02,0.46v0.46c0,0.14,0.02,0.3,0.02,0.46c0,0.14-0.02,0.3-0.02,0.46c0,0.14,0.02,0.3,0.02,0.46   c0,0.14-0.03,0.3-0.03,0.46c-0.01,0.14,0.02,0.3,0.02,0.46c0,0.14-0.01,0.3-0.01,0.46c0,0.14,0.02,0.3,0.02,0.46   c0,0.17-0.02,0.33-0.04,0.49c-0.02,0.17-0.09,0.32-0.13,0.48c-0.06,0.16-0.11,0.31-0.19,0.46c-0.07,0.13-0.12,0.27-0.21,0.37   c-0.1,0.11-0.22,0.2-0.33,0.28c-0.11,0.1-0.22,0.19-0.35,0.26c-0.13,0.06-0.27,0.1-0.41,0.13c-0.13,0.03-0.28,0.07-0.42,0.08   c-0.14,0-0.29,0.01-0.43-0.01c-0.13-0.01-0.28-0.07-0.41-0.11c-0.13-0.06-0.26-0.13-0.38-0.2c-0.12-0.08-0.26-0.14-0.37-0.25   c-0.1-0.1-0.18-0.23-0.26-0.36c-0.08-0.11-0.13-0.25-0.2-0.39c-0.06-0.13-0.14-0.26-0.18-0.41c-0.04-0.13-0.07-0.29-0.09-0.43   c-0.01-0.14-0.01-0.3-0.01-0.46c0-0.14,0.01-0.3,0.01-0.45c0-0.14-0.02-0.3-0.02-0.45c0-0.16,0.02-0.3,0.02-0.46v-0.45   c0-0.14-0.03-0.3-0.03-0.45s0-0.3,0-0.45v-0.46c0-0.14,0.02-0.29,0.02-0.45c0-0.14-0.02-0.29-0.03-0.45   c-0.01-0.14-0.02-0.29-0.06-0.46s-0.1-0.32-0.21-0.43c-0.11-0.11-0.27-0.18-0.43-0.2c-0.19-0.02-0.35,0.02-0.48,0.11   c-0.13,0.08-0.28,0.2-0.35,0.38c-0.03,0.1-0.03,0.22-0.04,0.32c-0.01,0.11-0.01,0.22-0.01,0.33c0,0.01,0.01,0.01,0.01,0.03   c0,0.16-0.03,0.3-0.03,0.46c0,0.16,0.02,0.3,0.02,0.46c0,0.16-0.01,0.3-0.01,0.46c0,0.14,0.01,0.29,0.01,0.45   c0.01,0.14-0.01,0.29-0.01,0.43s0.02,0.3,0.02,0.45s-0.01,0.29-0.01,0.45c0,0.14,0.02,0.29,0.02,0.43c0,0.16-0.04,0.3-0.04,0.45   c0,0.13,0.01,0.27,0.02,0.39c0,0.13,0.03,0.26,0.04,0.39C186.6,54.49,186.63,54.62,186.65,54.74L186.65,54.74z"/>
	<path class="st3" d="M203.64,49.27l-0.03-0.19c-0.02-0.17-0.09-0.32-0.22-0.45c-0.09-0.09-0.19-0.13-0.3-0.17   c-0.11-0.03-0.23-0.08-0.35-0.06c-0.12,0.02-0.23,0.08-0.32,0.14c-0.09,0.08-0.16,0.18-0.2,0.29c-0.06,0.12-0.08,0.23-0.1,0.35   c-0.01,0.12-0.03,0.25-0.03,0.36c0,0.29,0.01,0.29,0.01,0.59c0,0.16,0.01,0.31,0.01,0.47c0,0.16-0.02,0.31-0.03,0.47   c0,0.16,0.03,0.31,0.03,0.47c0,0.16-0.02,0.31-0.02,0.48c0,0.16,0.01,0.31,0.01,0.47c0,0.14,0,0.29-0.01,0.43   c-0.01,0.13-0.03,0.28-0.06,0.43c-0.01,0.07-0.01,0.07-0.01,0.14c-0.03,0.22-0.12,0.41-0.29,0.55c-0.1,0.08-0.2,0.07-0.31,0.03   c-0.16-0.04-0.3-0.11-0.42-0.25c-0.08-0.09-0.14-0.2-0.22-0.3c-0.07-0.1-0.14-0.2-0.21-0.31l-0.23-0.37   c-0.08-0.13-0.17-0.25-0.25-0.37c-0.08-0.13-0.17-0.25-0.25-0.37c-0.08-0.13-0.16-0.26-0.23-0.38l-0.11-0.19   c-0.08-0.12-0.14-0.26-0.21-0.38c-0.08-0.12-0.18-0.23-0.26-0.37l-0.25-0.41c-0.08-0.13-0.17-0.27-0.26-0.4   c-0.08-0.14-0.17-0.28-0.25-0.41c-0.08-0.11-0.11-0.25-0.19-0.37c-0.08-0.1-0.17-0.2-0.26-0.31c-0.08-0.12-0.18-0.21-0.29-0.3   c-0.12-0.08-0.23-0.16-0.37-0.2c-0.16-0.04-0.31-0.06-0.47-0.08c-0.16-0.02-0.3-0.03-0.46-0.02c-0.16,0.01-0.31,0.01-0.46,0.04   c-0.19,0.06-0.33,0.17-0.45,0.29c-0.12,0.12-0.23,0.27-0.28,0.46c-0.03,0.12-0.02,0.27-0.03,0.4c-0.01,0.13-0.06,0.27-0.06,0.4   c0,0.16,0.03,0.3,0.03,0.46c0,0.14-0.03,0.3-0.03,0.45c0,0.16,0.01,0.3,0.01,0.46v0.45c0,0.14,0.01,0.3,0.01,0.45   c0,0.18,0.01,0.18,0.01,0.37v0.36c0,0.2-0.03,0.2-0.03,0.41c0,0.2,0.03,0.2,0.03,0.4c0,0.14,0.01,0.29,0.01,0.43   c0,0.14-0.03,0.29-0.03,0.43c0,0.14,0.01,0.28,0.01,0.42v0.43c0,0.14-0.01,0.29-0.01,0.43c0,0.13,0.01,0.26,0.02,0.38   c0.01,0.13,0.04,0.26,0.08,0.38v0.04c0.01,0.04,0.01,0.1,0.03,0.16c0.06,0.17,0.13,0.3,0.26,0.4c0.13,0.09,0.29,0.12,0.46,0.12   c0.18,0,0.33-0.03,0.46-0.13c0.12-0.09,0.19-0.23,0.25-0.41c0.06-0.17,0.08-0.35,0.08-0.5v-0.06c0-0.18-0.02-0.35-0.02-0.52   c0-0.17,0-0.35,0-0.51v-0.41c0-0.13,0.01-0.27,0.01-0.4c0-0.14,0.01-0.28,0.01-0.41v-0.41c0-0.13-0.02-0.27-0.01-0.4   c0-0.13-0.01-0.28,0-0.43c0.01-0.13,0.06-0.27,0.08-0.41c0.03-0.13,0.07-0.27,0.11-0.41c0.07-0.21,0.2-0.31,0.3-0.33   c0.16-0.04,0.33,0.04,0.43,0.14c0.03,0.03,0.07,0.01,0.1,0.03c0.13,0.13,0.23,0.27,0.33,0.41c0.08,0.11,0.16,0.22,0.22,0.33   c0.08,0.11,0.14,0.22,0.22,0.35c0.07,0.11,0.16,0.21,0.23,0.33c0.07,0.11,0.14,0.22,0.21,0.35c0.07,0.11,0.13,0.23,0.2,0.35   l0.2,0.33c0.08,0.11,0.16,0.22,0.22,0.33c0.07,0.11,0.11,0.23,0.18,0.35c0.07,0.11,0.14,0.2,0.21,0.3   c0.07,0.11,0.14,0.21,0.21,0.31c0.07,0.11,0.1,0.23,0.17,0.33c0.07,0.11,0.15,0.21,0.21,0.31l0.2,0.32   c0.07,0.1,0.12,0.21,0.19,0.32c0.07,0.11,0.17,0.19,0.26,0.28c0.1,0.09,0.2,0.17,0.31,0.22c0.1,0.07,0.22,0.11,0.35,0.14   c0.2,0.06,0.4,0.1,0.61,0.1c0.16,0,0.32-0.01,0.49-0.04c0.14-0.02,0.27-0.08,0.38-0.14c0.11-0.07,0.21-0.17,0.28-0.28   c0.06-0.11,0.1-0.25,0.12-0.38v-0.16c0.02-0.17,0.06-0.35,0.06-0.52c0-0.14,0.01-0.29,0.01-0.43c0-0.16,0.01-0.3,0.01-0.45v-0.43   c-0.01-0.15,0-0.29,0-0.43c0-0.14-0.02-0.29-0.02-0.43c0-0.14,0.01-0.3,0.01-0.45c0-0.14,0.01-0.29,0.01-0.43   c0-0.14-0.01-0.29-0.01-0.43s-0.02-0.29-0.02-0.43c0-0.14,0.02-0.3,0.02-0.45s0-0.29,0-0.43v-0.43c0-0.14,0.01-0.29,0.01-0.43   v-0.45C203.72,49.66,203.68,49.46,203.64,49.27L203.64,49.27z"/>
	<path class="st3" d="M204.95,56.11c0,0.18,0.02,0.36,0.06,0.53c0.02,0.14,0.08,0.27,0.14,0.38c0.07,0.12,0.14,0.23,0.27,0.3   c0.1,0.08,0.23,0.12,0.38,0.16c0.11,0.02,0.23,0.02,0.33,0.02c0.13,0,0.28-0.03,0.41-0.03c0.13,0,0.27,0.03,0.4,0.03   c0.17,0,0.35-0.02,0.51-0.02h0.5c0.17,0,0.33,0.02,0.49,0.01c0.17-0.01,0.33-0.04,0.5-0.07c0.14-0.02,0.29-0.03,0.42-0.07   c0.14-0.02,0.29-0.03,0.43-0.07c0.13-0.03,0.28-0.08,0.41-0.12c0.15-0.04,0.27-0.13,0.39-0.19c0.14-0.06,0.27-0.11,0.4-0.18   c0.12-0.07,0.26-0.12,0.38-0.2c0.13-0.08,0.24-0.18,0.36-0.28c0.12-0.09,0.23-0.19,0.35-0.29c0.1-0.1,0.22-0.19,0.32-0.31   c0.1-0.11,0.18-0.23,0.27-0.36c0.08-0.13,0.16-0.26,0.22-0.39c0.07-0.13,0.11-0.28,0.17-0.42c0.06-0.13,0.1-0.28,0.14-0.42   c0.03-0.14,0.08-0.29,0.1-0.43c0.02-0.13,0.01-0.26,0.01-0.39v-0.76v-0.09c-0.01-0.14-0.02-0.29-0.04-0.42   c-0.02-0.14-0.04-0.29-0.08-0.42c-0.03-0.14-0.07-0.28-0.11-0.41c-0.04-0.13-0.1-0.27-0.16-0.4c-0.07-0.12-0.16-0.25-0.22-0.37   c-0.08-0.11-0.14-0.25-0.23-0.36c-0.09-0.11-0.19-0.21-0.29-0.31c-0.1-0.11-0.19-0.21-0.3-0.3c-0.11-0.1-0.25-0.16-0.37-0.23   c-0.11-0.08-0.23-0.16-0.37-0.22c-0.12-0.07-0.25-0.14-0.38-0.2c-0.12-0.06-0.25-0.08-0.37-0.12c-0.13-0.04-0.26-0.07-0.39-0.09   c-0.12-0.03-0.26-0.08-0.38-0.1c-0.13-0.03-0.27-0.06-0.38-0.08c-0.12-0.02-0.23-0.01-0.35-0.01c-0.11-0.01-0.22-0.04-0.33-0.06   c-0.18,0-0.36,0-0.52-0.02l-0.46-0.03c-0.16-0.01-0.3,0-0.46,0c-0.16,0-0.3,0.01-0.46,0.01c-0.11,0-0.21-0.01-0.32-0.01   c-0.18,0-0.36,0.01-0.53,0.04h-0.08c-0.13,0.02-0.25,0.1-0.35,0.17c-0.11,0.07-0.19,0.16-0.26,0.27c-0.07,0.1-0.11,0.21-0.13,0.35   c-0.03,0.19-0.06,0.37-0.06,0.55c0,0.16-0.01,0.31-0.01,0.48v0.47c0,0.17,0.03,0.32,0.03,0.48c0,0.17-0.01,0.32-0.01,0.48   c0,0.16-0.01,0.32-0.01,0.48c0,0.21-0.01,0.21-0.01,0.42v0.41c0,0.19,0.01,0.19,0.01,0.38v0.37c0,0.13,0.01,0.28,0.01,0.41v0.41   c0,0.14-0.01,0.28-0.01,0.41c0,0.14,0,0.28,0,0.42v0.41C204.96,55.83,204.95,55.97,204.95,56.11L204.95,56.11z M206.59,51.24   c0-0.21,0.01-0.42,0.06-0.62c0.03-0.14,0.09-0.28,0.16-0.39c0.09-0.11,0.2-0.19,0.32-0.26c0.11-0.07,0.23-0.12,0.38-0.13   c0.14-0.02,0.29-0.04,0.43-0.04c0.14-0.01,0.28-0.03,0.42-0.03c0.14,0.01,0.29,0.04,0.42,0.07c0.14,0.02,0.29,0.02,0.43,0.06   l0.4,0.13c0.13,0.06,0.26,0.13,0.39,0.2c0.13,0.08,0.27,0.13,0.39,0.21c0.12,0.09,0.25,0.18,0.35,0.28c0.11,0.1,0.2,0.22,0.3,0.35   c0.09,0.11,0.17,0.23,0.25,0.37c0.07,0.12,0.16,0.26,0.2,0.39c0.06,0.14,0.08,0.29,0.11,0.45c0.02,0.14,0.01,0.29,0.02,0.45   c0.01,0.13,0.02,0.28,0.01,0.4c0,0.14-0.02,0.28-0.04,0.41c-0.02,0.13-0.09,0.26-0.12,0.38c-0.04,0.13-0.08,0.26-0.14,0.38   c-0.06,0.13-0.13,0.26-0.21,0.37c-0.08,0.12-0.14,0.25-0.25,0.35c-0.1,0.11-0.21,0.2-0.32,0.29c-0.11,0.08-0.23,0.14-0.36,0.22   c-0.11,0.06-0.2,0.13-0.32,0.18c-0.1,0.04-0.21,0.1-0.33,0.14c-0.11,0.03-0.23,0.04-0.36,0.07c-0.16,0.04-0.3,0.08-0.45,0.1   c-0.17,0.02-0.31,0.03-0.47,0.04c-0.16,0.01-0.31,0.01-0.46,0c-0.19-0.01-0.35-0.04-0.49-0.1c-0.16-0.06-0.29-0.16-0.4-0.28   c-0.11-0.11-0.21-0.23-0.27-0.39c-0.04-0.14-0.06-0.3-0.06-0.48c-0.01-0.13-0.01-0.26-0.01-0.39c-0.01-0.12,0.01-0.26,0.01-0.38   c0-0.11-0.02-0.21-0.03-0.31c0-0.18,0.01-0.37,0.01-0.55c0-0.01,0.01-0.01,0.01-0.02c0-0.18-0.01-0.18-0.01-0.36   c0-0.17-0.01-0.17-0.01-0.35c0-0.13,0.01-0.27,0.01-0.4c0-0.13,0.01-0.26,0.01-0.39C206.58,51.51,206.59,51.38,206.59,51.24   L206.59,51.24z"/>
	<path class="st3" d="M221.89,56.31c-0.04-0.12-0.1-0.25-0.14-0.36c-0.06-0.13-0.16-0.26-0.22-0.39c-0.06-0.12-0.1-0.25-0.14-0.36   c-0.06-0.12-0.11-0.23-0.16-0.36c-0.06-0.13-0.09-0.29-0.14-0.42c-0.06-0.14-0.13-0.27-0.2-0.41l-0.17-0.41   c-0.07-0.13-0.13-0.26-0.19-0.39c-0.07-0.13-0.11-0.27-0.17-0.4c-0.06-0.12-0.1-0.26-0.16-0.39c-0.04-0.12-0.11-0.26-0.17-0.38   c-0.06-0.13-0.1-0.27-0.16-0.39c-0.06-0.13-0.12-0.26-0.18-0.38c-0.06-0.13-0.08-0.27-0.13-0.4c-0.06-0.12-0.12-0.25-0.18-0.38   c-0.06-0.11-0.1-0.23-0.16-0.35c-0.04-0.12-0.12-0.22-0.17-0.35l-0.17-0.35c-0.06-0.13-0.1-0.27-0.17-0.38   c-0.08-0.12-0.15-0.23-0.24-0.33c-0.1-0.11-0.23-0.18-0.36-0.25c-0.12-0.07-0.26-0.11-0.41-0.12c-0.14,0-0.29,0.01-0.42,0.07   c-0.13,0.06-0.26,0.13-0.37,0.25c-0.13,0.13-0.25,0.31-0.33,0.51c-0.06,0.12-0.1,0.25-0.16,0.37l-0.18,0.37   c-0.04,0.11-0.09,0.22-0.15,0.32c-0.04,0.11-0.08,0.23-0.12,0.33c-0.06,0.12-0.1,0.25-0.16,0.37c-0.04,0.11-0.1,0.23-0.16,0.35   c-0.06,0.12-0.11,0.23-0.16,0.36c-0.06,0.11-0.09,0.21-0.13,0.32c-0.06,0.1-0.1,0.21-0.14,0.31c-0.06,0.11-0.13,0.22-0.19,0.35   c-0.04,0.11-0.08,0.25-0.13,0.37c-0.04,0.11-0.12,0.22-0.17,0.35c-0.04,0.13-0.1,0.27-0.16,0.39c-0.06,0.13-0.09,0.28-0.14,0.41   l-0.18,0.38c-0.06,0.13-0.13,0.26-0.19,0.39c-0.07,0.14-0.1,0.3-0.17,0.45c-0.07,0.16-0.14,0.29-0.21,0.43   c-0.04,0.12-0.1,0.25-0.14,0.37c-0.04,0.12-0.07,0.26-0.1,0.39c-0.03,0.12-0.03,0.25,0,0.36c0.02,0.11,0.07,0.22,0.16,0.31   c0.1,0.08,0.21,0.14,0.33,0.17c0.12,0.01,0.25-0.01,0.38-0.06c0.12-0.03,0.25-0.07,0.33-0.13c0.1-0.08,0.2-0.17,0.25-0.27   c0.07-0.1,0.13-0.2,0.2-0.32c0.06-0.09,0.08-0.21,0.14-0.33c0.07-0.12,0.18-0.21,0.26-0.3c0.09-0.11,0.18-0.2,0.29-0.28   c0.1-0.07,0.22-0.12,0.36-0.16c0.12-0.04,0.25-0.09,0.38-0.1c0.14,0,0.3-0.02,0.45-0.02c0.14-0.01,0.29,0.03,0.45,0.02   c0.14,0,0.29-0.03,0.43-0.03c0.16,0,0.3,0.03,0.45,0.04c0.14,0,0.3,0.01,0.44,0.01c0.17,0.01,0.31,0.06,0.46,0.11   c0.14,0.06,0.3,0.1,0.42,0.2c0.11,0.1,0.21,0.23,0.3,0.37v0.02c0.09,0.13,0.16,0.27,0.22,0.4c0.06,0.13,0.12,0.25,0.2,0.33   c0.09,0.11,0.21,0.18,0.3,0.26c0.09,0.08,0.16,0.17,0.26,0.2c0.11,0.04,0.22,0.04,0.33,0.04c0.02,0,0.04,0.02,0.06,0.01   c0.2-0.01,0.36-0.1,0.47-0.22c0.11-0.12,0.17-0.29,0.17-0.49c0-0.01,0.02-0.01,0.02-0.02C221.96,56.57,221.93,56.44,221.89,56.31   L221.89,56.31z M218.67,53.33c0,0.18-0.01,0.32-0.09,0.43c-0.08,0.12-0.2,0.2-0.37,0.27c-0.18,0.09-0.39,0.13-0.59,0.12v-0.02   c0,0,0,0.03-0.01,0.03c-0.21,0-0.38-0.03-0.52-0.1c-0.19-0.07-0.35-0.17-0.43-0.3c-0.09-0.15-0.13-0.32-0.13-0.52   c0-0.14,0.03-0.3,0.08-0.47c0.04-0.14,0.09-0.29,0.16-0.45c0.07-0.12,0.13-0.25,0.21-0.37c0.07-0.11,0.13-0.23,0.23-0.33   c0.16-0.16,0.32-0.16,0.45-0.15c0.17,0.01,0.31,0.08,0.41,0.21c0.11,0.14,0.2,0.29,0.28,0.43c0.09,0.16,0.18,0.3,0.23,0.47   c0.04,0.13,0.08,0.25,0.1,0.36C218.69,53.08,218.67,53.21,218.67,53.33L218.67,53.33z"/>
	<path class="st3" d="M223.76,57.47c0.12,0.01,0.23,0.01,0.36,0.01c0.01,0,0.01,0.01,0.02,0.01c0.14,0,0.28-0.01,0.41-0.01   c0.13,0,0.27,0.02,0.4,0.02c0.16,0,0.31-0.01,0.47-0.01h0.45c0.22,0,0.22-0.01,0.45-0.01c0.22,0,0.22,0.02,0.45,0.02   c0.23,0,0.23-0.01,0.46-0.01c0.22,0,0.22,0.01,0.45,0.01h0.02c0.02,0,0.04-0.01,0.07-0.01c0.06,0,0.06,0,0.12,0l0.32-0.03   c0.17-0.02,0.32-0.09,0.45-0.2c0.17-0.16,0.27-0.37,0.25-0.58c-0.03-0.21-0.19-0.38-0.4-0.48c-0.1-0.04-0.19-0.08-0.29-0.1   c-0.13-0.02-0.26-0.06-0.38-0.07c-0.13-0.01-0.26-0.02-0.38-0.02h-0.49c-0.16,0-0.32,0.03-0.48,0.03c-0.2,0-0.39-0.03-0.59-0.03   c-0.03,0-0.08,0.02-0.11,0.02c-0.25,0-0.46-0.03-0.64-0.1c-0.16-0.06-0.28-0.14-0.39-0.25c-0.11-0.1-0.18-0.23-0.23-0.39   c-0.07-0.18-0.1-0.33-0.1-0.47c0.01-0.17,0-0.32,0.02-0.45c0.04-0.16,0.11-0.29,0.2-0.4c0.08-0.11,0.19-0.2,0.33-0.28   c0.11-0.06,0.26-0.11,0.41-0.13c0.14-0.02,0.28-0.02,0.41-0.03c0.14-0.02,0.28-0.01,0.41-0.01c0.16,0,0.31-0.03,0.47-0.03   c0.16,0,0.3,0.03,0.46,0.03c0.07,0,0.07-0.01,0.13-0.01c0.12,0,0.23-0.02,0.36-0.04c0.12-0.02,0.23-0.06,0.33-0.1   c0.11-0.06,0.21-0.12,0.28-0.21c0.07-0.1,0.13-0.2,0.13-0.33c0-0.13-0.07-0.25-0.13-0.36c-0.08-0.09-0.17-0.17-0.3-0.22   c-0.13-0.07-0.27-0.09-0.37-0.11c-0.11-0.01-0.21-0.04-0.31-0.04c-0.02,0-0.02,0.03-0.04,0.03c-0.12,0-0.26-0.02-0.38-0.02h-0.39   c-0.13,0-0.26-0.01-0.39-0.01c-0.18,0-0.33,0.01-0.49-0.01c-0.17-0.02-0.32-0.04-0.47-0.1c-0.13-0.04-0.25-0.11-0.33-0.19   c-0.09-0.09-0.13-0.2-0.19-0.31c-0.04-0.11-0.09-0.22-0.1-0.36c0-0.06,0.01-0.11,0.01-0.17c0-0.03-0.02-0.08-0.02-0.11   c0-0.18,0.03-0.35,0.1-0.49c0.07-0.16,0.19-0.28,0.33-0.38c0.13-0.08,0.3-0.11,0.48-0.14c0.17-0.02,0.31-0.06,0.47-0.07   c0.16-0.02,0.31-0.02,0.47-0.02h0.37c0.12,0,0.23-0.01,0.36-0.01c0.12,0,0.25,0.03,0.37,0.03c0.12,0,0.12-0.04,0.26-0.04   c0.18,0,0.38,0,0.59-0.1c0.11-0.06,0.19-0.13,0.26-0.22c0.07-0.1,0.13-0.2,0.14-0.31c0.01-0.11-0.02-0.23-0.09-0.36   c-0.06-0.09-0.14-0.16-0.28-0.23c-0.11-0.07-0.22-0.12-0.31-0.14c-0.11-0.03-0.22-0.02-0.33-0.03c-0.11-0.01-0.22-0.02-0.33-0.02   c-0.14,0-0.29-0.02-0.43-0.02c-0.14,0-0.28,0.01-0.42,0.01c-0.14,0-0.29,0.01-0.43,0.01c-0.14,0-0.29-0.02-0.42-0.02   c-0.14,0-0.29-0.01-0.43-0.01s-0.29,0.01-0.43,0.01c-0.13,0-0.28,0.02-0.42,0.02h-0.01c-0.12,0-0.26-0.01-0.38,0.01   c-0.13,0.01-0.26,0.04-0.37,0.07c-0.19,0.04-0.37,0.1-0.48,0.22c-0.12,0.12-0.19,0.29-0.23,0.48c-0.02,0.13-0.03,0.28-0.03,0.43   c0,0.16-0.02,0.3-0.02,0.46c0,0.14,0.01,0.29,0.01,0.45c0,0.15-0.01,0.3-0.01,0.45v0.46c0,0.14,0.02,0.3,0.02,0.45   s-0.01,0.3-0.01,0.45c0,0.16,0.01,0.3,0.01,0.46v0.45c0,0.14-0.03,0.3-0.03,0.45c0,0.16,0.04,0.3,0.04,0.46   c0,0.14-0.01,0.3-0.01,0.45s0.01,0.3,0.01,0.45c0,0.16-0.03,0.3-0.03,0.46c0,0.14-0.01,0.3-0.01,0.45c0,0.16,0.04,0.3,0.04,0.45   c0,0.11-0.03,0.2-0.02,0.29c0.02,0.18,0.09,0.33,0.17,0.46c0.09,0.16,0.2,0.27,0.35,0.36C223.42,57.42,223.59,57.46,223.76,57.47   L223.76,57.47z"/>
	<path class="st3" d="M239.45,56.01c-0.17-0.02-0.32-0.02-0.46-0.02c-0.13,0-0.26-0.03-0.39-0.03c-0.12,0-0.25,0.02-0.38,0.02   c-0.12,0-0.26-0.01-0.38-0.01c-0.13,0-0.26-0.02-0.39-0.02c-0.12,0.01-0.25,0.03-0.37,0.02c-0.12-0.01-0.25-0.07-0.38-0.08   c-0.08-0.01-0.08-0.01-0.16-0.01c-0.09-0.02-0.19-0.07-0.3-0.13c-0.13-0.09-0.22-0.18-0.27-0.3c-0.04-0.11-0.06-0.25-0.01-0.4   c0.03-0.11,0.08-0.22,0.13-0.32c0.06-0.11,0.1-0.22,0.18-0.31c0.11-0.13,0.25-0.27,0.36-0.41c0.07-0.09,0.16-0.17,0.23-0.26   c0.07-0.09,0.14-0.17,0.22-0.26l0.23-0.29c0.08-0.09,0.16-0.19,0.23-0.29c0.08-0.09,0.14-0.19,0.23-0.29   c0.08-0.1,0.16-0.21,0.25-0.31c0.08-0.1,0.17-0.2,0.26-0.31c0.08-0.1,0.16-0.21,0.25-0.31c0.09-0.1,0.19-0.19,0.28-0.29   c0.08-0.1,0.16-0.21,0.25-0.32c0.04-0.04,0.1-0.09,0.14-0.14l0.26-0.33c0.09-0.11,0.17-0.22,0.25-0.35   c0.08-0.11,0.13-0.23,0.2-0.37c0.06-0.12,0.08-0.25,0.1-0.37c0.02-0.12,0.06-0.25,0.04-0.38c0-0.14-0.06-0.26-0.1-0.37   c-0.06-0.12-0.13-0.21-0.23-0.28c-0.1-0.07-0.21-0.12-0.35-0.16c-0.14-0.03-0.29-0.06-0.45-0.07c-0.13-0.01-0.28-0.03-0.43-0.03   c-0.14,0-0.28,0-0.42,0h-0.42c-0.13,0-0.28,0.01-0.42,0.01c-0.13,0-0.28-0.04-0.41-0.04c-0.14,0.01-0.28,0.03-0.42,0.03   c-0.14,0-0.28,0.01-0.42,0.01c-0.14-0.01-0.28-0.02-0.42-0.02c-0.13,0-0.28,0.01-0.42,0.01c-0.21-0.01-0.43,0.01-0.64,0.03   c-0.1,0.01-0.19,0.01-0.29,0.01c-0.11,0.01-0.22,0.06-0.32,0.11c-0.09,0.06-0.17,0.14-0.23,0.25c-0.12,0.18-0.1,0.37,0.02,0.56   c0.08,0.1,0.16,0.17,0.26,0.22c0.09,0.06,0.19,0.12,0.31,0.13c0.09,0.01,0.17,0.01,0.25,0.02l0.38,0.04   c0.12,0.01,0.26,0.01,0.38,0.01c0.13,0,0.26-0.02,0.38-0.02c0.13,0,0.26,0.02,0.38,0.02c0.12,0,0.24-0.01,0.37-0.01   c0.2,0,0.38,0.01,0.55,0.06c0.22,0.08,0.38,0.21,0.47,0.38c0.07,0.16,0.04,0.36-0.03,0.57c-0.03,0.08-0.07,0.14-0.11,0.21   c0,0.01,0.01,0.02,0,0.02c-0.11,0.17-0.21,0.33-0.33,0.48c-0.1,0.12-0.2,0.26-0.31,0.39c-0.11,0.12-0.25,0.23-0.36,0.37   c-0.1,0.12-0.2,0.27-0.31,0.39c-0.08,0.1-0.18,0.19-0.27,0.29c-0.08,0.1-0.14,0.21-0.23,0.31c-0.09,0.1-0.17,0.2-0.25,0.3   l-0.27,0.3c-0.08,0.1-0.16,0.2-0.24,0.3c-0.08,0.1-0.19,0.19-0.28,0.29c-0.08,0.1-0.16,0.21-0.25,0.31   c-0.11,0.13-0.21,0.27-0.31,0.39c-0.11,0.13-0.19,0.29-0.28,0.41c-0.08,0.12-0.16,0.22-0.21,0.36c-0.04,0.12-0.07,0.26-0.09,0.4   c-0.02,0.12-0.01,0.26,0,0.4c0.01,0.14,0.01,0.28,0.07,0.38c0.06,0.12,0.13,0.22,0.25,0.3c0.1,0.07,0.22,0.11,0.36,0.13   c0.14,0.03,0.28,0.02,0.41,0.04c0.14,0.01,0.28,0.03,0.41,0.03c0,0,0.01,0.01,0.02,0.01c0.16-0.01,0.3,0,0.46,0   s0.31,0.01,0.47,0.01c0.16,0,0.31-0.01,0.47-0.01c0.28,0,0.28,0.01,0.56,0.01c0.29,0,0.29-0.01,0.57-0.01   c0.16,0,0.32-0.02,0.48-0.02c0.16,0,0.31,0.02,0.47,0.02c0.17,0,0.32-0.01,0.48-0.01c0.12,0,0.25,0,0.37-0.02   c0.12-0.01,0.25-0.04,0.37-0.07c0.11-0.02,0.29-0.04,0.43-0.17c0.14-0.12,0.2-0.3,0.21-0.47c0.01-0.18-0.04-0.35-0.18-0.49   C239.78,56.1,239.63,56.04,239.45,56.01L239.45,56.01z"/>
	<path class="st3" d="M250.76,52.71c0-0.09-0.02-0.18-0.02-0.26c-0.01-0.16-0.01-0.3-0.03-0.45c-0.02-0.14-0.03-0.29-0.07-0.43   c-0.03-0.14-0.06-0.29-0.1-0.42c-0.04-0.14-0.1-0.28-0.17-0.41c-0.06-0.13-0.12-0.27-0.19-0.4c-0.07-0.12-0.14-0.23-0.22-0.35   c-0.08-0.11-0.14-0.23-0.23-0.33c-0.09-0.11-0.19-0.2-0.29-0.3c-0.1-0.09-0.19-0.19-0.3-0.28c-0.1-0.09-0.2-0.18-0.31-0.26   c-0.11-0.08-0.25-0.13-0.37-0.2c-0.11-0.07-0.24-0.11-0.37-0.17c-0.13-0.06-0.25-0.13-0.38-0.18c-0.12-0.04-0.27-0.07-0.4-0.1   c-0.13-0.03-0.28-0.06-0.41-0.08c-0.14-0.02-0.29-0.04-0.43-0.06c-0.13-0.02-0.28-0.07-0.42-0.08c-0.14,0-0.29,0.01-0.42,0.01   c-0.14,0.01-0.29,0.03-0.43,0.06c-0.13,0.01-0.29,0-0.42,0.03c-0.14,0.02-0.29,0.04-0.42,0.08c-0.14,0.03-0.28,0.09-0.41,0.13   c-0.13,0.06-0.28,0.09-0.4,0.16c-0.13,0.06-0.26,0.13-0.38,0.2c-0.12,0.08-0.24,0.17-0.36,0.25c-0.12,0.09-0.26,0.17-0.37,0.26   c-0.11,0.1-0.22,0.21-0.32,0.32c-0.1,0.1-0.18,0.23-0.27,0.36c-0.09,0.11-0.21,0.21-0.29,0.35c-0.08,0.12-0.12,0.27-0.18,0.4   c-0.07,0.13-0.12,0.28-0.17,0.42c-0.06,0.13-0.1,0.28-0.13,0.42c-0.03,0.14-0.1,0.28-0.12,0.43c-0.02,0.12-0.03,0.25-0.04,0.38   c-0.01,0.12-0.01,0.26-0.01,0.39c-0.01,0.12-0.01,0.25-0.01,0.38c0,0.12,0.02,0.26,0.03,0.39c0.01,0.14,0.02,0.29,0.04,0.42   c0.02,0.14,0.07,0.29,0.1,0.42c0.03,0.14,0.08,0.29,0.12,0.42c0.06,0.13,0.1,0.27,0.16,0.4c0.07,0.13,0.13,0.26,0.21,0.38   c0.08,0.13,0.16,0.26,0.25,0.37c0.09,0.12,0.2,0.22,0.3,0.32c0.1,0.11,0.18,0.23,0.29,0.33c0.1,0.1,0.23,0.17,0.36,0.26l0.37,0.23   c0.13,0.07,0.25,0.17,0.38,0.22c0.13,0.06,0.28,0.1,0.41,0.14c0.13,0.04,0.28,0.08,0.42,0.11c0.12,0.03,0.25,0.07,0.38,0.09   c0.12,0.02,0.25,0.03,0.38,0.04l0.38,0.03c0.12,0.01,0.25,0.01,0.38,0.01c0.2,0,0.4,0,0.6-0.02c0.16-0.01,0.3-0.02,0.45-0.04   c0.16-0.03,0.3-0.08,0.43-0.11c0.16-0.03,0.3-0.06,0.45-0.1c0.14-0.04,0.29-0.1,0.42-0.16c0.13-0.07,0.27-0.13,0.4-0.21   c0.12-0.08,0.25-0.18,0.36-0.27c0.12-0.09,0.25-0.18,0.36-0.28c0.1-0.08,0.18-0.19,0.27-0.28c0.09-0.09,0.17-0.2,0.25-0.3   c0.08-0.1,0.14-0.2,0.21-0.31c0.08-0.1,0.13-0.21,0.19-0.33c0.07-0.12,0.14-0.23,0.2-0.36c0.04-0.12,0.08-0.26,0.12-0.38   c0.03-0.13,0.09-0.26,0.11-0.39c0.03-0.13,0.07-0.27,0.09-0.4c0.01-0.13,0.02-0.27,0.02-0.4c0.01-0.13,0.02-0.28,0.01-0.41V52.71   L250.76,52.71z M248.86,54.02c-0.06,0.14-0.1,0.3-0.17,0.43c-0.08,0.14-0.16,0.28-0.25,0.4c-0.09,0.12-0.19,0.25-0.3,0.36   c-0.1,0.11-0.22,0.2-0.35,0.3c-0.12,0.09-0.26,0.18-0.39,0.26c-0.13,0.08-0.28,0.13-0.42,0.19c-0.14,0.06-0.29,0.1-0.45,0.13   c-0.14,0.03-0.3,0.04-0.45,0.06c-0.16,0.01-0.31,0.03-0.46,0.02c-0.16-0.01-0.3-0.03-0.46-0.07c-0.14-0.02-0.29-0.08-0.43-0.12   c-0.14-0.04-0.29-0.09-0.42-0.16c-0.12-0.06-0.25-0.1-0.36-0.18c-0.11-0.07-0.19-0.18-0.29-0.27c-0.1-0.09-0.21-0.16-0.29-0.27   c-0.09-0.09-0.18-0.19-0.24-0.31c-0.09-0.12-0.16-0.26-0.22-0.39c-0.07-0.13-0.1-0.29-0.14-0.43c-0.06-0.14-0.1-0.28-0.13-0.42   c-0.03-0.14-0.08-0.29-0.09-0.45c-0.01-0.14,0.01-0.3,0.01-0.45c0.01-0.16,0.03-0.3,0.06-0.45c0.03-0.14,0.06-0.3,0.1-0.45   c0.04-0.13,0.11-0.28,0.18-0.41c0.06-0.13,0.12-0.27,0.19-0.4c0.08-0.14,0.16-0.28,0.26-0.39c0.09-0.12,0.21-0.21,0.32-0.31   c0.11-0.1,0.23-0.2,0.36-0.29c0.13-0.08,0.26-0.17,0.4-0.23c0.13-0.06,0.29-0.07,0.45-0.11c0.13-0.03,0.27-0.1,0.42-0.13   c0.14-0.02,0.29-0.04,0.45-0.04c0.01,0,0.03,0,0.06,0v0.03c0.14,0,0.28,0.01,0.41,0.02c0.14,0.02,0.28,0.03,0.41,0.07   c0.13,0.02,0.26,0.08,0.39,0.12c0.13,0.04,0.26,0.09,0.38,0.16c0.12,0.07,0.23,0.14,0.35,0.22c0.11,0.08,0.22,0.17,0.32,0.27   c0.1,0.09,0.18,0.19,0.27,0.29c0.08,0.1,0.14,0.21,0.21,0.32c0.07,0.11,0.13,0.23,0.19,0.35l0.13,0.38   c0.03,0.12,0.1,0.23,0.12,0.37c0.03,0.13,0.02,0.27,0.04,0.4c0.01,0.13,0.06,0.27,0.06,0.4c0,0.13,0,0.27-0.02,0.4   c-0.01,0.13-0.07,0.26-0.1,0.39C248.93,53.76,248.91,53.88,248.86,54.02L248.86,54.02z"/>
	<path class="st3" d="M260.43,49.27l-0.03-0.19c-0.02-0.17-0.09-0.32-0.22-0.45c-0.09-0.09-0.19-0.13-0.3-0.17   c-0.11-0.03-0.23-0.08-0.35-0.06c-0.12,0.02-0.23,0.08-0.32,0.14c-0.09,0.08-0.16,0.18-0.2,0.29c-0.06,0.12-0.08,0.23-0.1,0.35   c-0.01,0.12-0.03,0.25-0.03,0.36c0,0.29,0.01,0.29,0.01,0.59c0,0.16,0.01,0.31,0.01,0.47c0,0.16-0.02,0.31-0.03,0.47   c0,0.16,0.03,0.31,0.03,0.47c0,0.16-0.02,0.31-0.02,0.48c0,0.16,0.01,0.31,0.01,0.47c0,0.14,0,0.29-0.01,0.43   c-0.01,0.13-0.03,0.28-0.06,0.43c-0.01,0.07-0.01,0.07-0.01,0.14c-0.03,0.22-0.12,0.41-0.29,0.55c-0.1,0.08-0.2,0.07-0.31,0.03   c-0.16-0.04-0.3-0.11-0.42-0.25c-0.08-0.09-0.14-0.2-0.22-0.3c-0.07-0.1-0.14-0.2-0.21-0.31l-0.23-0.37   c-0.08-0.13-0.17-0.25-0.25-0.37c-0.08-0.13-0.17-0.25-0.25-0.37c-0.08-0.13-0.16-0.26-0.23-0.38l-0.11-0.19   c-0.08-0.12-0.14-0.26-0.21-0.38c-0.08-0.12-0.18-0.23-0.26-0.37l-0.25-0.41c-0.08-0.13-0.17-0.27-0.26-0.4   c-0.08-0.14-0.17-0.28-0.25-0.41c-0.08-0.11-0.11-0.25-0.19-0.37c-0.08-0.1-0.17-0.2-0.26-0.31c-0.08-0.12-0.18-0.21-0.29-0.3   c-0.12-0.08-0.23-0.16-0.37-0.2c-0.16-0.04-0.31-0.06-0.47-0.08c-0.16-0.02-0.3-0.03-0.46-0.02c-0.16,0.01-0.31,0.01-0.46,0.04   c-0.19,0.06-0.33,0.17-0.45,0.29c-0.12,0.12-0.23,0.27-0.28,0.46c-0.03,0.12-0.02,0.27-0.03,0.4c-0.01,0.13-0.06,0.27-0.06,0.4   c0,0.16,0.03,0.3,0.03,0.46c0,0.14-0.03,0.3-0.03,0.45c0,0.16,0.01,0.3,0.01,0.46v0.45c0,0.14,0.01,0.3,0.01,0.45   c0,0.18,0.01,0.18,0.01,0.37v0.36c0,0.2-0.03,0.2-0.03,0.41c0,0.2,0.03,0.2,0.03,0.4c0,0.14,0.01,0.29,0.01,0.43   c0,0.14-0.03,0.29-0.03,0.43c0,0.14,0.01,0.28,0.01,0.42v0.43c0,0.14-0.01,0.29-0.01,0.43c0,0.13,0.01,0.26,0.02,0.38   c0.01,0.13,0.04,0.26,0.08,0.38v0.04c0.01,0.04,0.01,0.1,0.03,0.16c0.06,0.17,0.13,0.3,0.26,0.4c0.13,0.09,0.29,0.12,0.46,0.12   c0.18,0,0.33-0.03,0.46-0.13c0.12-0.09,0.19-0.23,0.25-0.41c0.06-0.17,0.08-0.35,0.08-0.5v-0.06c0-0.18-0.02-0.35-0.02-0.52   c0-0.17,0-0.35,0-0.51v-0.41c0-0.13,0.01-0.27,0.01-0.4c0-0.14,0.01-0.28,0.01-0.41v-0.41c0-0.13-0.02-0.27-0.01-0.4   c0-0.13-0.01-0.28,0-0.43c0.01-0.13,0.06-0.27,0.08-0.41c0.03-0.13,0.07-0.27,0.11-0.41c0.07-0.21,0.2-0.31,0.3-0.33   c0.16-0.04,0.33,0.04,0.43,0.14c0.03,0.03,0.07,0.01,0.1,0.03c0.13,0.13,0.23,0.27,0.33,0.41c0.08,0.11,0.16,0.22,0.22,0.33   c0.08,0.11,0.14,0.22,0.22,0.35c0.07,0.11,0.16,0.21,0.23,0.33c0.07,0.11,0.14,0.22,0.21,0.35c0.07,0.11,0.13,0.23,0.2,0.35   l0.2,0.33c0.08,0.11,0.16,0.22,0.22,0.33c0.07,0.11,0.11,0.23,0.18,0.35c0.07,0.11,0.14,0.2,0.21,0.3   c0.07,0.11,0.14,0.21,0.21,0.31c0.07,0.11,0.1,0.23,0.17,0.33c0.07,0.11,0.15,0.21,0.21,0.31l0.2,0.32   c0.07,0.1,0.12,0.21,0.19,0.32c0.07,0.11,0.17,0.19,0.26,0.28c0.1,0.09,0.2,0.17,0.31,0.22c0.1,0.07,0.22,0.11,0.35,0.14   c0.2,0.06,0.4,0.1,0.61,0.1c0.16,0,0.32-0.01,0.49-0.04c0.14-0.02,0.27-0.08,0.38-0.14c0.11-0.07,0.21-0.17,0.28-0.28   c0.06-0.11,0.1-0.25,0.12-0.38v-0.16c0.02-0.17,0.06-0.35,0.06-0.52c0-0.14,0.01-0.29,0.01-0.43c0-0.16,0.01-0.3,0.01-0.45v-0.43   c-0.01-0.15,0-0.29,0-0.43c0-0.14-0.02-0.29-0.02-0.43c0-0.14,0.01-0.3,0.01-0.45c0-0.14,0.01-0.29,0.01-0.43   c0-0.14-0.01-0.29-0.01-0.43s-0.02-0.29-0.02-0.43c0-0.14,0.02-0.3,0.02-0.45s0-0.29,0-0.43v-0.43c0-0.14,0.01-0.29,0.01-0.43   v-0.45C260.51,49.66,260.46,49.46,260.43,49.27L260.43,49.27z"/>
	<path class="st3" d="M262.3,57.47c0.12,0.01,0.23,0.01,0.36,0.01c0.01,0,0.01,0.01,0.02,0.01c0.14,0,0.28-0.01,0.41-0.01   c0.13,0,0.27,0.02,0.4,0.02c0.16,0,0.31-0.01,0.47-0.01h0.45c0.22,0,0.22-0.01,0.45-0.01c0.22,0,0.22,0.02,0.45,0.02   c0.23,0,0.23-0.01,0.46-0.01c0.22,0,0.22,0.01,0.45,0.01h0.02c0.02,0,0.04-0.01,0.07-0.01c0.06,0,0.06,0,0.12,0l0.32-0.03   c0.17-0.02,0.32-0.09,0.45-0.2c0.17-0.16,0.27-0.37,0.25-0.58c-0.03-0.21-0.19-0.38-0.4-0.48c-0.1-0.04-0.19-0.08-0.29-0.1   c-0.13-0.02-0.26-0.06-0.38-0.07c-0.13-0.01-0.26-0.02-0.38-0.02h-0.49c-0.16,0-0.32,0.03-0.48,0.03c-0.2,0-0.39-0.03-0.59-0.03   c-0.03,0-0.08,0.02-0.11,0.02c-0.25,0-0.46-0.03-0.64-0.1c-0.16-0.06-0.28-0.14-0.39-0.25c-0.11-0.1-0.18-0.23-0.23-0.39   c-0.07-0.18-0.1-0.33-0.1-0.47c0.01-0.17,0-0.32,0.02-0.45c0.04-0.16,0.11-0.29,0.2-0.4c0.08-0.11,0.19-0.2,0.33-0.28   c0.11-0.06,0.26-0.11,0.41-0.13c0.14-0.02,0.28-0.02,0.41-0.03c0.14-0.02,0.28-0.01,0.41-0.01c0.16,0,0.31-0.03,0.47-0.03   c0.16,0,0.3,0.03,0.46,0.03c0.07,0,0.07-0.01,0.13-0.01c0.12,0,0.23-0.02,0.36-0.04c0.12-0.02,0.23-0.06,0.33-0.1   c0.11-0.06,0.21-0.12,0.28-0.21c0.07-0.1,0.13-0.2,0.13-0.33c0-0.13-0.07-0.25-0.13-0.36c-0.08-0.09-0.17-0.17-0.3-0.22   c-0.13-0.07-0.27-0.09-0.37-0.11c-0.11-0.01-0.21-0.04-0.31-0.04c-0.02,0-0.02,0.03-0.04,0.03c-0.12,0-0.26-0.02-0.38-0.02h-0.39   c-0.13,0-0.26-0.01-0.39-0.01c-0.18,0-0.33,0.01-0.49-0.01c-0.17-0.02-0.32-0.04-0.47-0.1c-0.13-0.04-0.25-0.11-0.33-0.19   c-0.09-0.09-0.13-0.2-0.19-0.31c-0.04-0.11-0.09-0.22-0.1-0.36c0-0.06,0.01-0.11,0.01-0.17c0-0.03-0.02-0.08-0.02-0.11   c0-0.18,0.03-0.35,0.1-0.49c0.07-0.16,0.19-0.28,0.33-0.38c0.13-0.08,0.3-0.11,0.48-0.14c0.17-0.02,0.31-0.06,0.47-0.07   c0.16-0.02,0.31-0.02,0.47-0.02h0.37c0.12,0,0.23-0.01,0.36-0.01c0.12,0,0.25,0.03,0.37,0.03c0.12,0,0.12-0.04,0.26-0.04   c0.18,0,0.38,0,0.59-0.1c0.11-0.06,0.19-0.13,0.26-0.22c0.07-0.1,0.13-0.2,0.14-0.31c0.01-0.11-0.02-0.23-0.09-0.36   c-0.06-0.09-0.14-0.16-0.28-0.23c-0.11-0.07-0.22-0.12-0.31-0.14c-0.11-0.03-0.22-0.02-0.33-0.03c-0.11-0.01-0.22-0.02-0.33-0.02   c-0.14,0-0.29-0.02-0.43-0.02c-0.14,0-0.28,0.01-0.42,0.01c-0.14,0-0.29,0.01-0.43,0.01s-0.29-0.02-0.42-0.02   c-0.14,0-0.29-0.01-0.43-0.01c-0.14,0-0.29,0.01-0.43,0.01c-0.13,0-0.28,0.02-0.42,0.02h-0.01c-0.12,0-0.26-0.01-0.38,0.01   c-0.13,0.01-0.26,0.04-0.37,0.07c-0.19,0.04-0.37,0.1-0.48,0.22c-0.12,0.12-0.19,0.29-0.23,0.48c-0.02,0.13-0.03,0.28-0.03,0.43   c0,0.16-0.02,0.3-0.02,0.46c0,0.14,0.01,0.29,0.01,0.45c0,0.15-0.01,0.3-0.01,0.45v0.46c0,0.14,0.02,0.3,0.02,0.45   s-0.01,0.3-0.01,0.45c0,0.16,0.01,0.3,0.01,0.46v0.45c0,0.14-0.03,0.3-0.03,0.45c0,0.16,0.04,0.3,0.04,0.46   c0,0.14-0.01,0.3-0.01,0.45s0.01,0.3,0.01,0.45c0,0.16-0.03,0.3-0.03,0.46c0,0.14-0.01,0.3-0.01,0.45c0,0.16,0.04,0.3,0.04,0.45   c0,0.11-0.03,0.2-0.02,0.29c0.02,0.18,0.09,0.33,0.17,0.46c0.09,0.16,0.2,0.27,0.35,0.36C261.96,57.42,262.12,57.46,262.3,57.47   L262.3,57.47z"/>
	<path class="st0" d="M79.08,23.97c3.54-0.46,6.31-3.52,6.31-7.22c0-4.02-3.23-7.28-7.21-7.28h-7.2h-0.25c-1.88,0-3.4,1.53-3.4,3.42   l0.01,0.93v17.66h0c0,1.55,1.02,2.81,2.28,2.81c1.26,0,2.29-1.26,2.29-2.82v-0.14v-3.47v-0.32c0.21-1.88,1.63-3.36,3.55-3.36h0.12   c0,0,1.27-0.09,2.46-0.16L79.08,23.97L79.08,23.97z M284.73,3.19c2.91,0,5.27,2.39,5.27,5.33c0,2.94-2.36,5.33-5.27,5.32   c-2.91,0-5.27-2.39-5.27-5.33C279.46,5.58,281.82,3.19,284.73,3.19L284.73,3.19z M286.08,9.26c0.23,0.57,0.45,1.14,0.68,1.72   c-0.02,0-0.03,0-0.04,0c-0.24,0-0.49,0-0.73,0c-0.03,0-0.04-0.01-0.06-0.04c-0.2-0.52-0.41-1.04-0.62-1.56   c-0.01-0.02-0.01-0.03-0.02-0.04c-0.46,0-0.92,0-1.38,0c0,0.55,0,1.09,0,1.64c-0.27,0-0.54,0-0.81,0c0-1.64,0-3.27,0-4.91   c0.01,0,0.03,0,0.04,0c0.8,0,1.59,0,2.39,0c0.39,0,0.73,0.12,1.03,0.36c0.24,0.2,0.41,0.45,0.51,0.75c0.08,0.26,0.1,0.52,0.06,0.79   c-0.04,0.29-0.15,0.54-0.33,0.77c-0.14,0.18-0.31,0.32-0.52,0.42C286.22,9.19,286.15,9.22,286.08,9.26L286.08,9.26z M283.92,8.52   L283.92,8.52c0.01,0,0.01,0,0.02,0c0.53,0,1.07,0,1.6,0c0.21,0,0.39-0.06,0.55-0.2c0.18-0.16,0.26-0.36,0.27-0.6   c0.01-0.22-0.06-0.41-0.2-0.57c-0.17-0.19-0.38-0.26-0.63-0.26c-0.52,0-1.04,0-1.56,0c-0.01,0-0.03,0-0.04,0   C283.92,7.43,283.92,7.97,283.92,8.52L283.92,8.52z M289.19,8.52L289.19,8.52c-0.01-2.5-2-4.5-4.46-4.5   c-2.47,0-4.46,2.01-4.46,4.51c0,2.5,1.99,4.5,4.46,4.5C287.2,13.02,289.18,11.01,289.19,8.52L289.19,8.52z M227.49,33.31   c0.98-0.1,1.74-0.93,1.74-1.94c0-1.08-0.87-1.95-1.93-1.95h-6.42h-0.37c-1.82,0-3.3-1.43-3.3-3.28c0-1.84,1.48-3.46,3.3-3.46h4.36   h0.18c1.5,0,2.72-0.87,2.72-1.93c0-1.06-1.22-1.92-2.72-1.92h-0.2h-4.54h0.02c-1.72,0-3.11-1.4-3.11-3.14   c0-1.73,1.39-3.14,3.11-3.14l5.56-0.01c1.43,0,2.58-0.91,2.58-2.04c0-1.13-1.05-1.98-2.58-2.04h-10.83c-1.26,0-2.28,1.05-2.28,2.33   l0,19.67c0.01,1.69,1.49,2.85,3.24,2.85h11.36L227.49,33.31L227.49,33.31z M209.62,24.8c-0.27-0.9-0.91-1.59-0.91-1.59   c-0.05-0.07-0.11-0.14-0.17-0.2c-0.02-0.02-0.03-0.03-0.05-0.04c-0.43-0.45-0.85-0.92-1.05-1.14c-0.04-0.05-0.09-0.1-0.13-0.15   c-0.05-0.06-0.1-0.12-0.14-0.18c-0.03-0.04-0.07-0.08-0.09-0.13c-0.99-1.71-0.01-2.85-0.01-2.85h0c0,0,0,0,0,0   c1.04-1.03,1.67-2.38,1.71-3.93c0-0.09,0-0.19,0-0.28c-0.01-0.49-0.07-0.95-0.19-1.38c-0.11-0.41-0.28-0.79-0.47-1.15   c-0.04-0.07-0.08-0.14-0.12-0.2c-1.23-1.99-3.77-3.08-6.65-3.08h0c-0.56-0.03-1.38-0.06-2.52-0.06c-0.44,0-5.2-0.02-5.2-0.02   c-1.29,0-2.33,1.21-2.33,2.51v0.09V31.2v0.01c0,1.31,1.2,2.17,2.52,2.16h9.95c3.37-0.09,6.16-2.97,6.15-6.32   C209.91,27.05,210.02,26.12,209.62,24.8L209.62,24.8z M199.87,11.98L199.87,11.98c2.66,0,4.27,1.58,4.27,3.52   c0,1.94-1.46,3.31-4.27,3.52c-2.35,0.18-4.27-1.06-4.27-3.52C195.6,12.88,197.51,11.98,199.87,11.98L199.87,11.98z M200.48,29.95   L200.48,29.95c-2.69,0.18-4.88-0.4-4.88-3.68c0-3.23,2.19-3.68,4.88-3.68c3.04,0,4.88,1.65,4.88,3.68   C205.36,28.31,203.7,29.73,200.48,29.95L200.48,29.95z M276.35,29.38c0,0-1.8-0.66-3.29-2.63c-1.15-1.52-2.34-3.42-1.42-4.04   c3.49-1.7,4.43-3.8,4.43-6.93c0-4.01-3.22-7.26-7.19-7.26h-7.18h-0.25c-1.87,0-3.39,1.52-3.39,3.41l0.01,0.92l0,17.62h0   c0.01,1.55,1.02,2.8,2.27,2.8c1.26,0,2.28-1.26,2.28-2.81v-0.14v-3.46v-0.32c0.18-1.66,0.79-3.32,2.64-3.24   c1.61-0.02,2.04,1.49,3.37,4.25c0.02,0.03,0.23,0.41,0.25,0.44c2.17,3.77,5.99,5.22,8.27,5.15c0.04,0,0.08,0,0.12,0   c2.05-0.14,2.14-1.05,2.18-1.21C279.45,31.93,279.78,30.53,276.35,29.38L276.35,29.38z M262.38,15.89L262.38,15.89   c0-1.3,0.17-2.46,1.16-3.19c0.27-0.2,0.6-0.37,1-0.5c0.63-0.21,1.45-0.32,2.5-0.32c3.07,0,4.66,1.8,4.66,4.02   c0,2.22-2.09,3.96-4.66,4.01c-1,0.02-1.79-0.08-2.41-0.29c-0.28-0.09-0.52-0.2-0.73-0.33C262.66,18.57,262.38,17.3,262.38,15.89   L262.38,15.89z M249.77,19.2c-4.57-9.77-4.57-9.72-4.66-9.82c-0.52-0.61-1.3-1-2.17-1c-0.87,0-1.64,0.39-2.17,1.01   c0,0-0.37,0.06-4.58,9.53c-5.18,11.66-4.74,12.34-4.74,12.34c0,1.2,0.96,2.17,2.15,2.17c1.19,0,2.14-0.97,2.14-2.17   c1.07-3.76,5.03-3.59,7.27-3.59c2.34,0,6.28-0.19,7.27,3.59c0,1.2,0.96,2.17,2.14,2.17c1.19,0,2.15-0.97,2.15-2.17   C254.58,31.25,254.92,30.21,249.77,19.2L249.77,19.2z M242.92,24.15L242.92,24.15c-1.92,0-2.9-0.05-2.9-2.41   c0-2.36,1.23-5.01,2.9-5c1.32,0.01,2.9,2.66,2.9,5.02C245.81,24.12,244.84,24.15,242.92,24.15L242.92,24.15z M175.82,30.39   c0,0-1.81-0.66-3.3-2.64c-1.15-1.52-2.35-3.43-1.43-4.05c3.49-1.7,4.44-3.81,4.44-6.95c0-4.02-3.23-7.28-7.21-7.28h-7.2h-0.25   c-1.88,0-3.4,1.53-3.4,3.42l0.01,0.93v17.66h0c0,1.55,1.02,2.81,2.28,2.81c1.26,0,2.29-1.26,2.29-2.82v-0.14v-3.47v-0.32   c0.18-1.67,0.8-3.33,2.65-3.25c1.62-0.02,2.05,1.5,3.38,4.26c0.01,0.03,0.23,0.41,0.25,0.44c2.18,3.78,6.01,5.24,8.29,5.16   c0.04,0,0.08,0,0.12,0c2.06-0.14,2.14-1.05,2.19-1.22C178.93,32.95,179.27,31.54,175.82,30.39L175.82,30.39z M161.82,16.86   L161.82,16.86c0-1.31,0.17-2.46,1.16-3.2c0.27-0.2,0.6-0.37,1-0.5c0.63-0.21,1.45-0.33,2.51-0.33c3.08,0,4.67,1.8,4.67,4.03   c0,2.22-2.09,3.97-4.67,4.03c-1,0.02-1.79-0.09-2.42-0.29c-0.28-0.09-0.52-0.2-0.74-0.33C162.11,19.55,161.82,18.28,161.82,16.86   L161.82,16.86z M149.25,20.18c-4.58-9.8-4.58-9.74-4.67-9.84c-0.53-0.62-1.3-1.01-2.17-1.01c-0.87,0-1.65,0.39-2.17,1.01   c0,0-0.37,0.06-4.59,9.55c-5.19,11.69-4.75,12.37-4.75,12.37c0,1.2,0.96,2.17,2.15,2.17c1.19,0,2.15-0.97,2.15-2.17   c1.07-3.77,5.05-3.6,7.28-3.6c2.34,0,6.29-0.19,7.29,3.6c0,1.2,0.96,2.17,2.15,2.17c1.19,0,2.15-0.97,2.15-2.17   C154.06,32.26,154.41,31.22,149.25,20.18L149.25,20.18z M142.37,25.14L142.37,25.14c-1.92,0-2.91-0.05-2.91-2.42   c0-2.37,1.23-5.02,2.9-5.02c1.32,0.01,2.9,2.66,2.9,5.03C145.27,25.11,144.29,25.14,142.37,25.14L142.37,25.14z M121.31,29.68   h-0.14c-0.01,0-0.01,0-0.01,0c0,0-0.01,0-0.01,0c-0.04,0-0.08,0-0.12,0c-0.05,0-0.1,0-0.15,0c0,0-0.01,0-0.01,0   c-0.01,0-0.02,0-0.03,0c-0.65-0.06-1.21-0.28-1.67-0.69c-0.41-0.41-0.62-0.9-0.73-1.48c-0.03-0.11-0.04-0.22-0.05-0.34   c-0.01-0.09-0.01-0.18-0.01-0.27V26.7V12.29c0-0.91-0.35-1.71-0.89-2.22c-0.26-0.25-0.58-0.44-0.92-0.52   c-0.15-0.04-0.31-0.06-0.47-0.06c-1.26,0-2.29,1.26-2.29,2.82v0.14v0.47v3v0.32v0.14l0,14.99c0,0.05,0,0.1,0,0.15   c0,0.09-0.01,0.18,0,0.27c0.01,0.12,0.04,0.24,0.06,0.35c0.11,0.59,0.38,1.09,0.73,1.47c0.44,0.37,1.02,0.62,1.67,0.68   c0.01,0,0.02,0,0.03,0c0,0,0.01,0,0.01,0c0.05,0,0.1,0,0.15,0c0.04,0,0.08,0,0.12,0c0,0,0.01,0,0.01,0c0,0,0.01,0,0.01,0h0.14h0.46   h2.98h0.32h0.14h4.95c0.9,0,1.69-0.35,2.2-0.89c0.25-0.27,0.43-0.58,0.52-0.92c0.04-0.15,0.06-0.31,0.06-0.48   c0-1.27-1.25-2.31-2.79-2.31h-0.14h-0.46h-2.97h-0.32h-0.14h-0.12H121.31L121.31,29.68z M99.01,9.47   c-6.42,0-11.62,5.56-11.62,12.41c0,6.85,5.2,12.41,11.62,12.41c6.42,0,11.62-5.56,11.62-12.41C110.63,15.03,105.43,9.47,99.01,9.47   L99.01,9.47z M99.11,29.96L99.11,29.96c-4.05,0-7.34-3.57-7.34-7.98c0-4.41,3.29-7.98,7.34-7.98c4.06,0,7.34,3.57,7.34,7.98   C106.45,26.38,103.16,29.96,99.11,29.96L99.11,29.96z M76.34,20.89L76.34,20.89c-1,0.02-1.79-0.09-2.42-0.29   c-0.28-0.09-0.52-0.2-0.74-0.33c-1.23-0.72-1.51-1.99-1.51-3.41c0-1.31,0.17-2.46,1.16-3.2c0.27-0.2,0.6-0.37,1-0.5   c0.63-0.21,1.45-0.33,2.5-0.33c3.08,0,4.67,1.8,4.67,4.03C81.01,19.09,78.91,20.84,76.34,20.89L76.34,20.89z"/>
</g>
</svg>